<svg xmlns:xlink="http://www.w3.org/1999/xlink" width="864pt" height="608pt" viewBox="0 0 864 608" xmlns="http://www.w3.org/2000/svg" version="1.1">
 <defs>
  <style type="text/css">*{stroke-linejoin: round; stroke-linecap: butt}</style>
 </defs>
 <g id="figure_1">
  <g id="patch_1">
   <path d="M 0 608 
L 864 608 
L 864 0 
L 0 0 
z
" style="fill: #ffffff"/>
  </g>
  <g id="axes_1">
   <g id="patch_2">
    <path d="M 432.000005 522.204222 
C 486.304111 522.204222 538.391373 500.628972 576.790174 462.23017 
C 615.188976 423.831368 636.764226 371.744107 636.764226 317.440001 
C 636.764226 263.135895 615.188976 211.048633 576.790174 172.649832 
C 538.391373 134.25103 486.304111 112.67578 432.000005 112.67578 
C 377.695899 112.67578 325.608638 134.25103 287.209836 172.649832 
C 248.811034 211.048633 227.235784 263.135895 227.235784 317.440001 
C 227.235784 371.744107 248.811034 423.831368 287.209836 462.23017 
C 325.608638 500.628972 377.695899 522.204222 432.000005 522.204222 
z
" clip-path="url(#p3cfc603e61)" style="fill: #174d7c; stroke: #174d7c; stroke-linejoin: miter"/>
   </g>
   <g id="patch_3">
    <path d="M 239.527924 284.666985 
Q 265.666473 221.405147 303.976957 171.569775 
" clip-path="url(#p3cfc603e61)" style="fill: none; stroke: #ffffff; stroke-width: 5; stroke-linecap: round"/>
    <path d="M 299.953467 173.522088 
L 303.976957 171.569775 
L 303.124714 175.959955 
z
" clip-path="url(#p3cfc603e61)" style="fill: #ffffff; stroke: #ffffff; stroke-width: 5; stroke-linecap: round"/>
   </g>
   <g id="patch_4">
    <path d="M 192.631203 322.690046 
Q 155.568705 326.523427 124.066714 323.265243 
" clip-path="url(#p3cfc603e61)" style="fill: none; stroke: #ff5342; stroke-width: 5; stroke-linecap: round"/>
    <path d="M 127.839732 325.666147 
L 124.066714 323.265243 
L 128.251248 321.687371 
z
" clip-path="url(#p3cfc603e61)" style="fill: #ff5342; stroke: #ff5342; stroke-width: 5; stroke-linecap: round"/>
   </g>
   <g id="patch_5">
    <path d="M 317.325739 172.882005 
Q 291.18719 236.143843 252.876707 285.979215 
" clip-path="url(#p3cfc603e61)" style="fill: none; stroke: #ffffff; stroke-width: 5; stroke-linecap: round"/>
    <path d="M 256.900197 284.026902 
L 252.876707 285.979215 
L 253.72895 281.589035 
z
" clip-path="url(#p3cfc603e61)" style="fill: #ffffff; stroke: #ffffff; stroke-width: 5; stroke-linecap: round"/>
   </g>
   <g id="patch_6">
    <path d="M 364.146226 134.367781 
Q 432.001861 125.373513 494.315802 133.633682 
" clip-path="url(#p3cfc603e61)" style="fill: none; stroke: #ffffff; stroke-width: 5; stroke-linecap: round"/>
    <path d="M 490.613304 131.125394 
L 494.315802 133.633682 
L 490.087673 135.090708 
z
" clip-path="url(#p3cfc603e61)" style="fill: #ffffff; stroke: #ffffff; stroke-width: 5; stroke-linecap: round"/>
   </g>
   <g id="patch_7">
    <path d="M 335.837474 174.55183 
Q 358.864537 317.440162 336.726848 454.809534 
" clip-path="url(#p3cfc603e61)" style="fill: none; stroke: #ffffff; stroke-width: 5; stroke-linecap: round"/>
    <path d="M 339.33778 451.178689 
L 336.726848 454.809534 
L 335.388731 450.542282 
z
" clip-path="url(#p3cfc603e61)" style="fill: #ffffff; stroke: #ffffff; stroke-width: 5; stroke-linecap: round"/>
   </g>
   <g id="patch_8">
    <path d="M 352.293917 166.771411 
Q 462.005619 300.118507 520.668558 456.571179 
" clip-path="url(#p3cfc603e61)" style="fill: none; stroke: #ffffff; stroke-width: 5; stroke-linecap: round"/>
    <path d="M 521.136893 452.123633 
L 520.668558 456.571179 
L 517.391522 453.527984 
z
" clip-path="url(#p3cfc603e61)" style="fill: #ffffff; stroke: #ffffff; stroke-width: 5; stroke-linecap: round"/>
   </g>
   <g id="patch_9">
    <path d="M 499.853768 145.850182 
Q 431.998133 154.84445 369.684192 146.584281 
" clip-path="url(#p3cfc603e61)" style="fill: none; stroke: #ffffff; stroke-width: 5; stroke-linecap: round"/>
    <path d="M 373.386689 149.092569 
L 369.684192 146.584281 
L 373.912321 145.127255 
z
" clip-path="url(#p3cfc603e61)" style="fill: #ffffff; stroke: #ffffff; stroke-width: 5; stroke-linecap: round"/>
   </g>
   <g id="patch_10">
    <path d="M 364.14625 489.029815 
Q 432.001881 480.035541 494.31582 488.295704 
" clip-path="url(#p3cfc603e61)" style="fill: none; stroke: #ffffff; stroke-width: 5; stroke-linecap: round"/>
    <path d="M 490.613322 485.787416 
L 494.31582 488.295704 
L 490.087691 489.75273 
z
" clip-path="url(#p3cfc603e61)" style="fill: #ffffff; stroke: #ffffff; stroke-width: 5; stroke-linecap: round"/>
   </g>
   <g id="patch_11">
    <path d="M 356.336494 472.163274 
Q 468.567887 380.777104 598.60209 331.264232 
" clip-path="url(#p3cfc603e61)" style="fill: none; stroke: #ffffff; stroke-width: 5; stroke-linecap: round"/>
    <path d="M 594.15222 330.818522 
L 598.60209 331.264232 
L 595.575599 334.556702 
z
" clip-path="url(#p3cfc603e61)" style="fill: #ffffff; stroke: #ffffff; stroke-width: 5; stroke-linecap: round"/>
   </g>
   <g id="patch_12">
    <path d="M 511.706093 468.108569 
Q 401.994392 334.761474 343.331452 178.308802 
" clip-path="url(#p3cfc603e61)" style="fill: none; stroke: #ffffff; stroke-width: 5; stroke-linecap: round"/>
    <path d="M 342.863118 182.756347 
L 343.331452 178.308802 
L 346.608488 181.351996 
z
" clip-path="url(#p3cfc603e61)" style="fill: #ffffff; stroke: #ffffff; stroke-width: 5; stroke-linecap: round"/>
   </g>
   <g id="patch_13">
    <path d="M 499.853787 500.512203 
Q 431.998156 509.506477 369.684217 501.246314 
" clip-path="url(#p3cfc603e61)" style="fill: none; stroke: #ffffff; stroke-width: 5; stroke-linecap: round"/>
    <path d="M 373.386715 503.754602 
L 369.684217 501.246314 
L 373.912346 499.789288 
z
" clip-path="url(#p3cfc603e61)" style="fill: #ffffff; stroke: #ffffff; stroke-width: 5; stroke-linecap: round"/>
   </g>
   <g id="patch_14">
    <path d="M 610.045634 340.047761 
Q 497.814241 431.433931 367.780038 480.946803 
" clip-path="url(#p3cfc603e61)" style="fill: none; stroke: #ffffff; stroke-width: 5; stroke-linecap: round"/>
    <path d="M 372.229908 481.392513 
L 367.780038 480.946803 
L 370.806529 477.654333 
z
" clip-path="url(#p3cfc603e61)" style="fill: #ffffff; stroke: #ffffff; stroke-width: 5; stroke-linecap: round"/>
   </g>
   <g id="patch_15">
    <path d="M 671.368798 312.189982 
Q 708.431296 308.356604 739.933286 311.614792 
" clip-path="url(#p3cfc603e61)" style="fill: none; stroke: #006c84; stroke-width: 5; stroke-linecap: round"/>
    <path d="M 736.160269 309.213888 
L 739.933286 311.614792 
L 735.748752 313.192663 
z
" clip-path="url(#p3cfc603e61)" style="fill: #006c84; stroke: #006c84; stroke-width: 5; stroke-linecap: round"/>
   </g>
   <g id="patch_16">
    <path d="M 118.505405 312.189975 
Q 155.567903 308.356593 187.069893 311.614778 
" clip-path="url(#p3cfc603e61)" style="fill: none; stroke: #ff5342; stroke-width: 5; stroke-linecap: round"/>
    <path d="M 183.296876 309.213873 
L 187.069893 311.614778 
L 182.885359 313.192649 
z
" clip-path="url(#p3cfc603e61)" style="fill: #ff5342; stroke: #ff5342; stroke-width: 5; stroke-linecap: round"/>
   </g>
   <g id="patch_17">
    <path d="M 745.494595 322.690061 
Q 708.432096 326.523439 676.930106 323.26525 
" clip-path="url(#p3cfc603e61)" style="fill: none; stroke: #006c84; stroke-width: 5; stroke-linecap: round"/>
    <path d="M 680.703123 325.666155 
L 676.930106 323.26525 
L 681.11464 321.687379 
z
" clip-path="url(#p3cfc603e61)" style="fill: #006c84; stroke: #006c84; stroke-width: 5; stroke-linecap: round"/>
   </g>
   <g id="PathCollection_1">
    <defs>
     <path id="me21b91ac49" d="M 0 35 
C 9.282109 35 18.185295 31.312179 24.748737 24.748737 
C 31.312179 18.185295 35 9.282109 35 0 
C 35 -9.282109 31.312179 -18.185295 24.748737 -24.748737 
C 18.185295 -31.312179 9.282109 -35 0 -35 
C -9.282109 -35 -18.185295 -31.312179 -24.748737 -24.748737 
C -31.312179 -18.185295 -35 -9.282109 -35 0 
C -35 9.282109 -31.312179 18.185295 -24.748737 24.748737 
C -18.185295 31.312179 -9.282109 35 0 35 
z
" style="stroke: #1f78b4"/>
    </defs>
    <g clip-path="url(#p3cfc603e61)">
     <use xlink:href="#me21b91ac49" x="227.235781" y="317.440008" style="fill: #1f78b4; stroke: #1f78b4"/>
     <use xlink:href="#me21b91ac49" x="329.617883" y="140.108982" style="fill: #1f78b4; stroke: #1f78b4"/>
     <use xlink:href="#me21b91ac49" x="534.382111" y="140.108981" style="fill: #1f78b4; stroke: #1f78b4"/>
     <use xlink:href="#me21b91ac49" x="329.617909" y="494.771019" style="fill: #1f78b4; stroke: #1f78b4"/>
     <use xlink:href="#me21b91ac49" x="534.382128" y="494.770999" style="fill: #1f78b4; stroke: #1f78b4"/>
     <use xlink:href="#me21b91ac49" x="636.764219" y="317.440016" style="fill: #1f78b4; stroke: #1f78b4"/>
     <use xlink:href="#me21b91ac49" x="83.900826" y="317.440013" style="fill: #1f78b4; stroke: #1f78b4"/>
     <use xlink:href="#me21b91ac49" x="780.099174" y="317.440027" style="fill: #1f78b4; stroke: #1f78b4"/>
    </g>
   </g>
   <g id="PathCollection_2">
    <defs>
     <path id="maab945c982" d="M 0 37.080992 
C 9.833994 37.080992 19.266537 33.173905 26.220221 26.220221 
C 33.173905 19.266537 37.080992 9.833994 37.080992 0 
C 37.080992 -9.833994 33.173905 -19.266537 26.220221 -26.220221 
C 19.266537 -33.173905 9.833994 -37.080992 0 -37.080992 
C -9.833994 -37.080992 -19.266537 -33.173905 -26.220221 -26.220221 
C -33.173905 -19.266537 -37.080992 -9.833994 -37.080992 0 
C -37.080992 9.833994 -33.173905 19.266537 -26.220221 26.220221 
C -19.266537 33.173905 -9.833994 37.080992 0 37.080992 
z
" style="stroke: #819898"/>
    </defs>
    <g clip-path="url(#p3cfc603e61)">
     <use xlink:href="#maab945c982" x="227.235781" y="317.440008" style="fill: #ffffff; stroke: #819898"/>
     <use xlink:href="#maab945c982" x="329.617883" y="140.108982" style="fill: #ffffff; stroke: #819898"/>
     <use xlink:href="#maab945c982" x="534.382111" y="140.108981" style="fill: #ffffff; stroke: #819898"/>
     <use xlink:href="#maab945c982" x="329.617909" y="494.771019" style="fill: #ffffff; stroke: #819898"/>
     <use xlink:href="#maab945c982" x="534.382128" y="494.770999" style="fill: #ffffff; stroke: #819898"/>
     <use xlink:href="#maab945c982" x="636.764219" y="317.440016" style="fill: #ffffff; stroke: #819898"/>
     <use xlink:href="#maab945c982" x="83.900826" y="317.440013" style="fill: #ffffff; stroke: #819898"/>
     <use xlink:href="#maab945c982" x="780.099174" y="317.440027" style="fill: #ffffff; stroke: #819898"/>
    </g>
   </g>
   <g id="text_1">
    <!-- Json -->
    <g transform="translate(515.828049 145.075856) scale(0.18 -0.18)">
     <defs>
      <path id="DejaVuSans-4a" d="M 628 4666 
L 1259 4666 
L 1259 325 
Q 1259 -519 939 -900 
Q 619 -1281 -91 -1281 
L -331 -1281 
L -331 -750 
L -134 -750 
Q 284 -750 456 -515 
Q 628 -281 628 325 
L 628 4666 
z
" transform="scale(0.015625)"/>
      <path id="DejaVuSans-73" d="M 2834 3397 
L 2834 2853 
Q 2591 2978 2328 3040 
Q 2066 3103 1784 3103 
Q 1356 3103 1142 2972 
Q 928 2841 928 2578 
Q 928 2378 1081 2264 
Q 1234 2150 1697 2047 
L 1894 2003 
Q 2506 1872 2764 1633 
Q 3022 1394 3022 966 
Q 3022 478 2636 193 
Q 2250 -91 1575 -91 
Q 1294 -91 989 -36 
Q 684 19 347 128 
L 347 722 
Q 666 556 975 473 
Q 1284 391 1588 391 
Q 1994 391 2212 530 
Q 2431 669 2431 922 
Q 2431 1156 2273 1281 
Q 2116 1406 1581 1522 
L 1381 1569 
Q 847 1681 609 1914 
Q 372 2147 372 2553 
Q 372 3047 722 3315 
Q 1072 3584 1716 3584 
Q 2034 3584 2315 3537 
Q 2597 3491 2834 3397 
z
" transform="scale(0.015625)"/>
      <path id="DejaVuSans-6f" d="M 1959 3097 
Q 1497 3097 1228 2736 
Q 959 2375 959 1747 
Q 959 1119 1226 758 
Q 1494 397 1959 397 
Q 2419 397 2687 759 
Q 2956 1122 2956 1747 
Q 2956 2369 2687 2733 
Q 2419 3097 1959 3097 
z
M 1959 3584 
Q 2709 3584 3137 3096 
Q 3566 2609 3566 1747 
Q 3566 888 3137 398 
Q 2709 -91 1959 -91 
Q 1206 -91 779 398 
Q 353 888 353 1747 
Q 353 2609 779 3096 
Q 1206 3584 1959 3584 
z
" transform="scale(0.015625)"/>
      <path id="DejaVuSans-6e" d="M 3513 2113 
L 3513 0 
L 2938 0 
L 2938 2094 
Q 2938 2591 2744 2837 
Q 2550 3084 2163 3084 
Q 1697 3084 1428 2787 
Q 1159 2491 1159 1978 
L 1159 0 
L 581 0 
L 581 3500 
L 1159 3500 
L 1159 2956 
Q 1366 3272 1645 3428 
Q 1925 3584 2291 3584 
Q 2894 3584 3203 3211 
Q 3513 2838 3513 2113 
z
" transform="scale(0.015625)"/>
     </defs>
     <use xlink:href="#DejaVuSans-4a"/>
     <use xlink:href="#DejaVuSans-73" x="29.492188"/>
     <use xlink:href="#DejaVuSans-6f" x="81.591797"/>
     <use xlink:href="#DejaVuSans-6e" x="142.773438"/>
    </g>
   </g>
   <g id="text_2">
    <!-- NX -->
    <g transform="translate(521.484003 499.737874) scale(0.18 -0.18)">
     <defs>
      <path id="DejaVuSans-4e" d="M 628 4666 
L 1478 4666 
L 3547 763 
L 3547 4666 
L 4159 4666 
L 4159 0 
L 3309 0 
L 1241 3903 
L 1241 0 
L 628 0 
L 628 4666 
z
" transform="scale(0.015625)"/>
      <path id="DejaVuSans-58" d="M 403 4666 
L 1081 4666 
L 2241 2931 
L 3406 4666 
L 4084 4666 
L 2584 2425 
L 4184 0 
L 3506 0 
L 2194 1984 
L 872 0 
L 191 0 
L 1856 2491 
L 403 4666 
z
" transform="scale(0.015625)"/>
     </defs>
     <use xlink:href="#DejaVuSans-4e"/>
     <use xlink:href="#DejaVuSans-58" x="74.804688"/>
    </g>
   </g>
   <g id="text_3">
    <!-- Conjure -->
    <g transform="translate(49.166451 322.406888) scale(0.18 -0.18)">
     <defs>
      <path id="DejaVuSans-43" d="M 4122 4306 
L 4122 3641 
Q 3803 3938 3442 4084 
Q 3081 4231 2675 4231 
Q 1875 4231 1450 3742 
Q 1025 3253 1025 2328 
Q 1025 1406 1450 917 
Q 1875 428 2675 428 
Q 3081 428 3442 575 
Q 3803 722 4122 1019 
L 4122 359 
Q 3791 134 3420 21 
Q 3050 -91 2638 -91 
Q 1578 -91 968 557 
Q 359 1206 359 2328 
Q 359 3453 968 4101 
Q 1578 4750 2638 4750 
Q 3056 4750 3426 4639 
Q 3797 4528 4122 4306 
z
" transform="scale(0.015625)"/>
      <path id="DejaVuSans-6a" d="M 603 3500 
L 1178 3500 
L 1178 -63 
Q 1178 -731 923 -1031 
Q 669 -1331 103 -1331 
L -116 -1331 
L -116 -844 
L 38 -844 
Q 366 -844 484 -692 
Q 603 -541 603 -63 
L 603 3500 
z
M 603 4863 
L 1178 4863 
L 1178 4134 
L 603 4134 
L 603 4863 
z
" transform="scale(0.015625)"/>
      <path id="DejaVuSans-75" d="M 544 1381 
L 544 3500 
L 1119 3500 
L 1119 1403 
Q 1119 906 1312 657 
Q 1506 409 1894 409 
Q 2359 409 2629 706 
Q 2900 1003 2900 1516 
L 2900 3500 
L 3475 3500 
L 3475 0 
L 2900 0 
L 2900 538 
Q 2691 219 2414 64 
Q 2138 -91 1772 -91 
Q 1169 -91 856 284 
Q 544 659 544 1381 
z
M 1991 3584 
L 1991 3584 
z
" transform="scale(0.015625)"/>
      <path id="DejaVuSans-72" d="M 2631 2963 
Q 2534 3019 2420 3045 
Q 2306 3072 2169 3072 
Q 1681 3072 1420 2755 
Q 1159 2438 1159 1844 
L 1159 0 
L 581 0 
L 581 3500 
L 1159 3500 
L 1159 2956 
Q 1341 3275 1631 3429 
Q 1922 3584 2338 3584 
Q 2397 3584 2469 3576 
Q 2541 3569 2628 3553 
L 2631 2963 
z
" transform="scale(0.015625)"/>
      <path id="DejaVuSans-65" d="M 3597 1894 
L 3597 1613 
L 953 1613 
Q 991 1019 1311 708 
Q 1631 397 2203 397 
Q 2534 397 2845 478 
Q 3156 559 3463 722 
L 3463 178 
Q 3153 47 2828 -22 
Q 2503 -91 2169 -91 
Q 1331 -91 842 396 
Q 353 884 353 1716 
Q 353 2575 817 3079 
Q 1281 3584 2069 3584 
Q 2775 3584 3186 3129 
Q 3597 2675 3597 1894 
z
M 3022 2063 
Q 3016 2534 2758 2815 
Q 2500 3097 2075 3097 
Q 1594 3097 1305 2825 
Q 1016 2553 972 2059 
L 3022 2063 
z
" transform="scale(0.015625)"/>
     </defs>
     <use xlink:href="#DejaVuSans-43"/>
     <use xlink:href="#DejaVuSans-6f" x="69.824219"/>
     <use xlink:href="#DejaVuSans-6e" x="131.005859"/>
     <use xlink:href="#DejaVuSans-6a" x="194.384766"/>
     <use xlink:href="#DejaVuSans-75" x="222.167969"/>
     <use xlink:href="#DejaVuSans-72" x="285.546875"/>
     <use xlink:href="#DejaVuSans-65" x="324.410156"/>
    </g>
   </g>
   <g id="text_4">
    <!-- GP2 -->
    <g transform="translate(761.972611 322.406902) scale(0.18 -0.18)">
     <defs>
      <path id="DejaVuSans-47" d="M 3809 666 
L 3809 1919 
L 2778 1919 
L 2778 2438 
L 4434 2438 
L 4434 434 
Q 4069 175 3628 42 
Q 3188 -91 2688 -91 
Q 1594 -91 976 548 
Q 359 1188 359 2328 
Q 359 3472 976 4111 
Q 1594 4750 2688 4750 
Q 3144 4750 3555 4637 
Q 3966 4525 4313 4306 
L 4313 3634 
Q 3963 3931 3569 4081 
Q 3175 4231 2741 4231 
Q 1884 4231 1454 3753 
Q 1025 3275 1025 2328 
Q 1025 1384 1454 906 
Q 1884 428 2741 428 
Q 3075 428 3337 486 
Q 3600 544 3809 666 
z
" transform="scale(0.015625)"/>
      <path id="DejaVuSans-50" d="M 1259 4147 
L 1259 2394 
L 2053 2394 
Q 2494 2394 2734 2622 
Q 2975 2850 2975 3272 
Q 2975 3691 2734 3919 
Q 2494 4147 2053 4147 
L 1259 4147 
z
M 628 4666 
L 2053 4666 
Q 2838 4666 3239 4311 
Q 3641 3956 3641 3272 
Q 3641 2581 3239 2228 
Q 2838 1875 2053 1875 
L 1259 1875 
L 1259 0 
L 628 0 
L 628 4666 
z
" transform="scale(0.015625)"/>
      <path id="DejaVuSans-32" d="M 1228 531 
L 3431 531 
L 3431 0 
L 469 0 
L 469 531 
Q 828 903 1448 1529 
Q 2069 2156 2228 2338 
Q 2531 2678 2651 2914 
Q 2772 3150 2772 3378 
Q 2772 3750 2511 3984 
Q 2250 4219 1831 4219 
Q 1534 4219 1204 4116 
Q 875 4013 500 3803 
L 500 4441 
Q 881 4594 1212 4672 
Q 1544 4750 1819 4750 
Q 2544 4750 2975 4387 
Q 3406 4025 3406 3419 
Q 3406 3131 3298 2873 
Q 3191 2616 2906 2266 
Q 2828 2175 2409 1742 
Q 1991 1309 1228 531 
z
" transform="scale(0.015625)"/>
     </defs>
     <use xlink:href="#DejaVuSans-47"/>
     <use xlink:href="#DejaVuSans-50" x="77.490234"/>
     <use xlink:href="#DejaVuSans-32" x="137.792969"/>
    </g>
   </g>
   <g id="text_5">
    <!-- Essence -->
    <g transform="translate(190.444062 322.406883) scale(0.18 -0.18)">
     <defs>
      <path id="DejaVuSans-45" d="M 628 4666 
L 3578 4666 
L 3578 4134 
L 1259 4134 
L 1259 2753 
L 3481 2753 
L 3481 2222 
L 1259 2222 
L 1259 531 
L 3634 531 
L 3634 0 
L 628 0 
L 628 4666 
z
" transform="scale(0.015625)"/>
      <path id="DejaVuSans-63" d="M 3122 3366 
L 3122 2828 
Q 2878 2963 2633 3030 
Q 2388 3097 2138 3097 
Q 1578 3097 1268 2742 
Q 959 2388 959 1747 
Q 959 1106 1268 751 
Q 1578 397 2138 397 
Q 2388 397 2633 464 
Q 2878 531 3122 666 
L 3122 134 
Q 2881 22 2623 -34 
Q 2366 -91 2075 -91 
Q 1284 -91 818 406 
Q 353 903 353 1747 
Q 353 2603 823 3093 
Q 1294 3584 2113 3584 
Q 2378 3584 2631 3529 
Q 2884 3475 3122 3366 
z
" transform="scale(0.015625)"/>
     </defs>
     <use xlink:href="#DejaVuSans-45"/>
     <use xlink:href="#DejaVuSans-73" x="63.183594"/>
     <use xlink:href="#DejaVuSans-73" x="115.283203"/>
     <use xlink:href="#DejaVuSans-65" x="167.382812"/>
     <use xlink:href="#DejaVuSans-6e" x="228.90625"/>
     <use xlink:href="#DejaVuSans-63" x="292.285156"/>
     <use xlink:href="#DejaVuSans-65" x="347.265625"/>
    </g>
   </g>
   <g id="text_6">
    <!-- GP2 -->
    <g transform="translate(618.637656 312.32886) scale(0.18 -0.18)">
     <use xlink:href="#DejaVuSans-47"/>
     <use xlink:href="#DejaVuSans-50" x="77.490234"/>
     <use xlink:href="#DejaVuSans-32" x="137.792969"/>
    </g>
    <!-- String -->
    <g transform="translate(609.904844 332.484922) scale(0.18 -0.18)">
     <defs>
      <path id="DejaVuSans-53" d="M 3425 4513 
L 3425 3897 
Q 3066 4069 2747 4153 
Q 2428 4238 2131 4238 
Q 1616 4238 1336 4038 
Q 1056 3838 1056 3469 
Q 1056 3159 1242 3001 
Q 1428 2844 1947 2747 
L 2328 2669 
Q 3034 2534 3370 2195 
Q 3706 1856 3706 1288 
Q 3706 609 3251 259 
Q 2797 -91 1919 -91 
Q 1588 -91 1214 -16 
Q 841 59 441 206 
L 441 856 
Q 825 641 1194 531 
Q 1563 422 1919 422 
Q 2459 422 2753 634 
Q 3047 847 3047 1241 
Q 3047 1584 2836 1778 
Q 2625 1972 2144 2069 
L 1759 2144 
Q 1053 2284 737 2584 
Q 422 2884 422 3419 
Q 422 4038 858 4394 
Q 1294 4750 2059 4750 
Q 2388 4750 2728 4690 
Q 3069 4631 3425 4513 
z
" transform="scale(0.015625)"/>
      <path id="DejaVuSans-74" d="M 1172 4494 
L 1172 3500 
L 2356 3500 
L 2356 3053 
L 1172 3053 
L 1172 1153 
Q 1172 725 1289 603 
Q 1406 481 1766 481 
L 2356 481 
L 2356 0 
L 1766 0 
Q 1100 0 847 248 
Q 594 497 594 1153 
L 594 3053 
L 172 3053 
L 172 3500 
L 594 3500 
L 594 4494 
L 1172 4494 
z
" transform="scale(0.015625)"/>
      <path id="DejaVuSans-69" d="M 603 3500 
L 1178 3500 
L 1178 0 
L 603 0 
L 603 3500 
z
M 603 4863 
L 1178 4863 
L 1178 4134 
L 603 4134 
L 603 4863 
z
" transform="scale(0.015625)"/>
      <path id="DejaVuSans-67" d="M 2906 1791 
Q 2906 2416 2648 2759 
Q 2391 3103 1925 3103 
Q 1463 3103 1205 2759 
Q 947 2416 947 1791 
Q 947 1169 1205 825 
Q 1463 481 1925 481 
Q 2391 481 2648 825 
Q 2906 1169 2906 1791 
z
M 3481 434 
Q 3481 -459 3084 -895 
Q 2688 -1331 1869 -1331 
Q 1566 -1331 1297 -1286 
Q 1028 -1241 775 -1147 
L 775 -588 
Q 1028 -725 1275 -790 
Q 1522 -856 1778 -856 
Q 2344 -856 2625 -561 
Q 2906 -266 2906 331 
L 2906 616 
Q 2728 306 2450 153 
Q 2172 0 1784 0 
Q 1141 0 747 490 
Q 353 981 353 1791 
Q 353 2603 747 3093 
Q 1141 3584 1784 3584 
Q 2172 3584 2450 3431 
Q 2728 3278 2906 2969 
L 2906 3500 
L 3481 3500 
L 3481 434 
z
" transform="scale(0.015625)"/>
     </defs>
     <use xlink:href="#DejaVuSans-53"/>
     <use xlink:href="#DejaVuSans-74" x="63.476562"/>
     <use xlink:href="#DejaVuSans-72" x="102.685547"/>
     <use xlink:href="#DejaVuSans-69" x="143.798828"/>
     <use xlink:href="#DejaVuSans-6e" x="171.582031"/>
     <use xlink:href="#DejaVuSans-67" x="234.960938"/>
    </g>
   </g>
   <g id="text_7">
    <!-- GP2 -->
    <g transform="translate(311.491346 489.659863) scale(0.18 -0.18)">
     <use xlink:href="#DejaVuSans-47"/>
     <use xlink:href="#DejaVuSans-50" x="77.490234"/>
     <use xlink:href="#DejaVuSans-32" x="137.792969"/>
    </g>
    <!-- Graph -->
    <g transform="translate(302.011815 509.815925) scale(0.18 -0.18)">
     <defs>
      <path id="DejaVuSans-61" d="M 2194 1759 
Q 1497 1759 1228 1600 
Q 959 1441 959 1056 
Q 959 750 1161 570 
Q 1363 391 1709 391 
Q 2188 391 2477 730 
Q 2766 1069 2766 1631 
L 2766 1759 
L 2194 1759 
z
M 3341 1997 
L 3341 0 
L 2766 0 
L 2766 531 
Q 2569 213 2275 61 
Q 1981 -91 1556 -91 
Q 1019 -91 701 211 
Q 384 513 384 1019 
Q 384 1609 779 1909 
Q 1175 2209 1959 2209 
L 2766 2209 
L 2766 2266 
Q 2766 2663 2505 2880 
Q 2244 3097 1772 3097 
Q 1472 3097 1187 3025 
Q 903 2953 641 2809 
L 641 3341 
Q 956 3463 1253 3523 
Q 1550 3584 1831 3584 
Q 2591 3584 2966 3190 
Q 3341 2797 3341 1997 
z
" transform="scale(0.015625)"/>
      <path id="DejaVuSans-70" d="M 1159 525 
L 1159 -1331 
L 581 -1331 
L 581 3500 
L 1159 3500 
L 1159 2969 
Q 1341 3281 1617 3432 
Q 1894 3584 2278 3584 
Q 2916 3584 3314 3078 
Q 3713 2572 3713 1747 
Q 3713 922 3314 415 
Q 2916 -91 2278 -91 
Q 1894 -91 1617 61 
Q 1341 213 1159 525 
z
M 3116 1747 
Q 3116 2381 2855 2742 
Q 2594 3103 2138 3103 
Q 1681 3103 1420 2742 
Q 1159 2381 1159 1747 
Q 1159 1113 1420 752 
Q 1681 391 2138 391 
Q 2594 391 2855 752 
Q 3116 1113 3116 1747 
z
" transform="scale(0.015625)"/>
      <path id="DejaVuSans-68" d="M 3513 2113 
L 3513 0 
L 2938 0 
L 2938 2094 
Q 2938 2591 2744 2837 
Q 2550 3084 2163 3084 
Q 1697 3084 1428 2787 
Q 1159 2491 1159 1978 
L 1159 0 
L 581 0 
L 581 4863 
L 1159 4863 
L 1159 2956 
Q 1366 3272 1645 3428 
Q 1925 3584 2291 3584 
Q 2894 3584 3203 3211 
Q 3513 2838 3513 2113 
z
" transform="scale(0.015625)"/>
     </defs>
     <use xlink:href="#DejaVuSans-47"/>
     <use xlink:href="#DejaVuSans-72" x="77.490234"/>
     <use xlink:href="#DejaVuSans-61" x="118.603516"/>
     <use xlink:href="#DejaVuSans-70" x="179.882812"/>
     <use xlink:href="#DejaVuSans-68" x="243.359375"/>
    </g>
   </g>
   <g id="text_8">
    <!-- AST -->
    <g transform="translate(312.250695 145.075857) scale(0.18 -0.18)">
     <defs>
      <path id="DejaVuSans-41" d="M 2188 4044 
L 1331 1722 
L 3047 1722 
L 2188 4044 
z
M 1831 4666 
L 2547 4666 
L 4325 0 
L 3669 0 
L 3244 1197 
L 1141 1197 
L 716 0 
L 50 0 
L 1831 4666 
z
" transform="scale(0.015625)"/>
      <path id="DejaVuSans-54" d="M -19 4666 
L 3928 4666 
L 3928 4134 
L 2272 4134 
L 2272 0 
L 1638 0 
L 1638 4134 
L -19 4134 
L -19 4666 
z
" transform="scale(0.015625)"/>
     </defs>
     <use xlink:href="#DejaVuSans-41"/>
     <use xlink:href="#DejaVuSans-53" x="68.408203"/>
     <use xlink:href="#DejaVuSans-54" x="131.884766"/>
    </g>
   </g>
   <g id="legend_1">
    <g id="patch_18">
     <path d="M 17.8 527.010533 
L 153.109375 527.010533 
Q 155.109375 527.010533 155.109375 525.010533 
L 155.109375 481.976158 
Q 155.109375 479.976158 153.109375 479.976158 
L 17.8 479.976158 
Q 15.8 479.976158 15.8 481.976158 
L 15.8 525.010533 
Q 15.8 527.010533 17.8 527.010533 
z
" style="fill: #ffffff; opacity: 0.8; stroke: #cccccc; stroke-linejoin: miter"/>
    </g>
    <g id="patch_19">
     <path d="M 19.8 491.574595 
L 39.8 491.574595 
L 39.8 484.574595 
L 19.8 484.574595 
z
" style="fill: #ffffff; stroke: #174d7c; stroke-linejoin: miter"/>
    </g>
    <g id="text_9">
     <!-- Formats Translations -->
     <g transform="translate(47.8 491.574595) scale(0.1 -0.1)">
      <defs>
       <path id="DejaVuSans-46" d="M 628 4666 
L 3309 4666 
L 3309 4134 
L 1259 4134 
L 1259 2759 
L 3109 2759 
L 3109 2228 
L 1259 2228 
L 1259 0 
L 628 0 
L 628 4666 
z
" transform="scale(0.015625)"/>
       <path id="DejaVuSans-6d" d="M 3328 2828 
Q 3544 3216 3844 3400 
Q 4144 3584 4550 3584 
Q 5097 3584 5394 3201 
Q 5691 2819 5691 2113 
L 5691 0 
L 5113 0 
L 5113 2094 
Q 5113 2597 4934 2840 
Q 4756 3084 4391 3084 
Q 3944 3084 3684 2787 
Q 3425 2491 3425 1978 
L 3425 0 
L 2847 0 
L 2847 2094 
Q 2847 2600 2669 2842 
Q 2491 3084 2119 3084 
Q 1678 3084 1418 2786 
Q 1159 2488 1159 1978 
L 1159 0 
L 581 0 
L 581 3500 
L 1159 3500 
L 1159 2956 
Q 1356 3278 1631 3431 
Q 1906 3584 2284 3584 
Q 2666 3584 2933 3390 
Q 3200 3197 3328 2828 
z
" transform="scale(0.015625)"/>
       <path id="DejaVuSans-20" transform="scale(0.015625)"/>
       <path id="DejaVuSans-6c" d="M 603 4863 
L 1178 4863 
L 1178 0 
L 603 0 
L 603 4863 
z
" transform="scale(0.015625)"/>
      </defs>
      <use xlink:href="#DejaVuSans-46"/>
      <use xlink:href="#DejaVuSans-6f" x="53.894531"/>
      <use xlink:href="#DejaVuSans-72" x="115.076172"/>
      <use xlink:href="#DejaVuSans-6d" x="154.439453"/>
      <use xlink:href="#DejaVuSans-61" x="251.851562"/>
      <use xlink:href="#DejaVuSans-74" x="313.130859"/>
      <use xlink:href="#DejaVuSans-73" x="352.339844"/>
      <use xlink:href="#DejaVuSans-20" x="404.439453"/>
      <use xlink:href="#DejaVuSans-54" x="436.226562"/>
      <use xlink:href="#DejaVuSans-72" x="482.560547"/>
      <use xlink:href="#DejaVuSans-61" x="523.673828"/>
      <use xlink:href="#DejaVuSans-6e" x="584.953125"/>
      <use xlink:href="#DejaVuSans-73" x="648.332031"/>
      <use xlink:href="#DejaVuSans-6c" x="700.431641"/>
      <use xlink:href="#DejaVuSans-61" x="728.214844"/>
      <use xlink:href="#DejaVuSans-74" x="789.494141"/>
      <use xlink:href="#DejaVuSans-69" x="828.703125"/>
      <use xlink:href="#DejaVuSans-6f" x="856.486328"/>
      <use xlink:href="#DejaVuSans-6e" x="917.667969"/>
      <use xlink:href="#DejaVuSans-73" x="981.046875"/>
     </g>
    </g>
    <g id="patch_20">
     <path d="M 19.8 506.25272 
L 39.8 506.25272 
L 39.8 499.25272 
L 19.8 499.25272 
z
" style="fill: #ff5342"/>
    </g>
    <g id="text_10">
     <!-- Conjure API -->
     <g transform="translate(47.8 506.25272) scale(0.1 -0.1)">
      <defs>
       <path id="DejaVuSans-49" d="M 628 4666 
L 1259 4666 
L 1259 0 
L 628 0 
L 628 4666 
z
" transform="scale(0.015625)"/>
      </defs>
      <use xlink:href="#DejaVuSans-43"/>
      <use xlink:href="#DejaVuSans-6f" x="69.824219"/>
      <use xlink:href="#DejaVuSans-6e" x="131.005859"/>
      <use xlink:href="#DejaVuSans-6a" x="194.384766"/>
      <use xlink:href="#DejaVuSans-75" x="222.167969"/>
      <use xlink:href="#DejaVuSans-72" x="285.546875"/>
      <use xlink:href="#DejaVuSans-65" x="324.410156"/>
      <use xlink:href="#DejaVuSans-20" x="385.933594"/>
      <use xlink:href="#DejaVuSans-41" x="417.720703"/>
      <use xlink:href="#DejaVuSans-50" x="486.128906"/>
      <use xlink:href="#DejaVuSans-49" x="546.431641"/>
     </g>
    </g>
    <g id="patch_21">
     <path d="M 19.8 520.930845 
L 39.8 520.930845 
L 39.8 513.930845 
L 19.8 513.930845 
z
" style="fill: #006c84"/>
    </g>
    <g id="text_11">
     <!-- GP2 API -->
     <g transform="translate(47.8 520.930845) scale(0.1 -0.1)">
      <use xlink:href="#DejaVuSans-47"/>
      <use xlink:href="#DejaVuSans-50" x="77.490234"/>
      <use xlink:href="#DejaVuSans-32" x="137.792969"/>
      <use xlink:href="#DejaVuSans-20" x="201.416016"/>
      <use xlink:href="#DejaVuSans-41" x="233.203125"/>
      <use xlink:href="#DejaVuSans-50" x="301.611328"/>
      <use xlink:href="#DejaVuSans-49" x="361.914062"/>
     </g>
    </g>
   </g>
  </g>
 </g>
 <defs>
  <clipPath id="p3cfc603e61">
   <rect x="10.8" y="102.869467" width="842.4" height="429.141066"/>
  </clipPath>
 </defs>
</svg>
