<svg width="1889pt" height="789pt"
 viewBox="0.00 0.00 1888.55 789.48" xmlns="http://www.w3.org/2000/svg" xmlns:xlink="http://www.w3.org/1999/xlink">
<g id="graph0" class="graph" transform="scale(1 1) rotate(0) translate(4 785.4773)">
<title>G</title>
<polygon fill="#ffffff" stroke="transparent" points="-4,4 -4,-785.4773 1884.5548,-785.4773 1884.5548,4 -4,4"/>
<!-- 0 -->
<g id="node1" class="node">
<title>0</title>
<ellipse fill="none" stroke="#000000" cx="619.5205" cy="-749.6575" rx="76.9581" ry="31.6406"/>
<text text-anchor="start" x="573.0881" y="-756.5575" font-family="Times,serif" font-size="14.00" fill="#000000">&quot;unnamed~root&quot;</text>
<text text-anchor="start" x="617.2705" y="-733.0575" font-family="Times,serif" font-size="9.00" fill="#000000">0</text>
</g>
<!-- 1 -->
<g id="node2" class="node">
<title>1</title>
<ellipse fill="none" stroke="#000000" cx="110.5205" cy="-630.0179" rx="110.541" ry="31.6406"/>
<text text-anchor="start" x="40.3707" y="-636.9179" font-family="Times,serif" font-size="14.00" fill="#000000">&quot;given~GivenStatement&quot;</text>
<text text-anchor="start" x="108.2705" y="-613.4179" font-family="Times,serif" font-size="9.00" fill="#000000">1</text>
</g>
<!-- 0&#45;&gt;1 -->
<g id="edge1" class="edge">
<title>0&#45;&gt;1</title>
<path fill="none" stroke="#000000" d="M550.99,-735.09C472.9508,-718.301 341.7275,-689.4611 229.5205,-661.8377 220.0981,-659.518 210.2774,-657.021 200.4955,-654.4824"/>
<polygon fill="#000000" stroke="#000000" points="201.3028,-651.0759 190.7428,-651.935 199.5336,-657.8487 201.3028,-651.0759"/>
<polygon fill="#ffffff" stroke="transparent" points="391.0205,-679.8377 391.0205,-699.8377 402.0205,-699.8377 402.0205,-679.8377 391.0205,-679.8377"/>
<text text-anchor="start" x="393.0205" y="-685.2377" font-family="Times,serif" font-size="14.00" fill="#000000">1</text>
</g>
<!-- 4 -->
<g id="node5" class="node">
<title>4</title>
<ellipse fill="none" stroke="#000000" cx="349.5205" cy="-630.0179" rx="110.541" ry="31.6406"/>
<text text-anchor="start" x="279.3707" y="-636.9179" font-family="Times,serif" font-size="14.00" fill="#000000">&quot;given~GivenStatement&quot;</text>
<text text-anchor="start" x="347.2705" y="-613.4179" font-family="Times,serif" font-size="9.00" fill="#000000">4</text>
</g>
<!-- 0&#45;&gt;4 -->
<g id="edge4" class="edge">
<title>0&#45;&gt;4</title>
<path fill="none" stroke="#000000" d="M566.8208,-726.3057C524.7533,-707.6652 465.4446,-681.385 419.4139,-660.9883"/>
<polygon fill="#000000" stroke="#000000" points="420.6599,-657.7122 410.0993,-656.8609 417.824,-664.1121 420.6599,-657.7122"/>
<polygon fill="#ffffff" stroke="transparent" points="502.0205,-679.8377 502.0205,-699.8377 513.0205,-699.8377 513.0205,-679.8377 502.0205,-679.8377"/>
<text text-anchor="start" x="504.0205" y="-685.2377" font-family="Times,serif" font-size="14.00" fill="#000000">2</text>
</g>
<!-- 9 -->
<g id="node10" class="node">
<title>9</title>
<ellipse fill="none" stroke="#000000" cx="619.5205" cy="-630.0179" rx="141.7267" ry="31.6406"/>
<text text-anchor="start" x="527.208" y="-636.9179" font-family="Times,serif" font-size="14.00" fill="#000000">&quot;letting~NameLettingStatement&quot;</text>
<text text-anchor="start" x="617.2705" y="-613.4179" font-family="Times,serif" font-size="9.00" fill="#000000">9</text>
</g>
<!-- 0&#45;&gt;9 -->
<g id="edge9" class="edge">
<title>0&#45;&gt;9</title>
<path fill="none" stroke="#000000" d="M619.5205,-717.5962C619.5205,-703.6492 619.5205,-687.1154 619.5205,-672.1911"/>
<polygon fill="#000000" stroke="#000000" points="623.0206,-672.1675 619.5205,-662.1676 616.0206,-672.1676 623.0206,-672.1675"/>
<polygon fill="#ffffff" stroke="transparent" points="620.0205,-679.8377 620.0205,-699.8377 631.0205,-699.8377 631.0205,-679.8377 620.0205,-679.8377"/>
<text text-anchor="start" x="622.0205" y="-685.2377" font-family="Times,serif" font-size="14.00" fill="#000000">3</text>
</g>
<!-- 12 -->
<g id="node13" class="node">
<title>12</title>
<ellipse fill="none" stroke="#000000" cx="877.5205" cy="-630.0179" rx="98.3685" ry="31.6406"/>
<text text-anchor="start" x="815.917" y="-636.9179" font-family="Times,serif" font-size="14.00" fill="#000000">&quot;find~FindStatement&quot;</text>
<text text-anchor="start" x="873.0205" y="-613.4179" font-family="Times,serif" font-size="9.00" fill="#000000">12</text>
</g>
<!-- 0&#45;&gt;12 -->
<g id="edge12" class="edge">
<title>0&#45;&gt;12</title>
<path fill="none" stroke="#000000" d="M670.8015,-725.8775C711.2742,-707.1095 768.0192,-680.7958 811.8197,-660.4846"/>
<polygon fill="#000000" stroke="#000000" points="813.3596,-663.6286 820.9593,-656.2464 810.4148,-657.2781 813.3596,-663.6286"/>
<polygon fill="#ffffff" stroke="transparent" points="765.0205,-679.8377 765.0205,-699.8377 776.0205,-699.8377 776.0205,-679.8377 765.0205,-679.8377"/>
<text text-anchor="start" x="767.0205" y="-685.2377" font-family="Times,serif" font-size="14.00" fill="#000000">4</text>
</g>
<!-- 15 -->
<g id="node16" class="node">
<title>15</title>
<ellipse fill="none" stroke="#000000" cx="1131.5205" cy="-630.0179" rx="137.9788" ry="31.6406"/>
<text text-anchor="start" x="1042.1242" y="-636.9179" font-family="Times,serif" font-size="14.00" fill="#000000">&quot;such that~SuchThatStatement&quot;</text>
<text text-anchor="start" x="1127.0205" y="-613.4179" font-family="Times,serif" font-size="9.00" fill="#000000">15</text>
</g>
<!-- 0&#45;&gt;15 -->
<g id="edge15" class="edge">
<title>0&#45;&gt;15</title>
<path fill="none" stroke="#000000" d="M686.7186,-733.9552C772.707,-713.8622 922.6857,-678.8165 1024.4791,-655.0303"/>
<polygon fill="#000000" stroke="#000000" points="1025.5425,-658.3762 1034.4837,-652.6925 1023.9496,-651.5598 1025.5425,-658.3762"/>
<polygon fill="#ffffff" stroke="transparent" points="907.0205,-679.8377 907.0205,-699.8377 918.0205,-699.8377 918.0205,-679.8377 907.0205,-679.8377"/>
<text text-anchor="start" x="909.0205" y="-685.2377" font-family="Times,serif" font-size="14.00" fill="#000000">5</text>
</g>
<!-- 2 -->
<g id="node3" class="node">
<title>2</title>
<ellipse fill="none" stroke="#000000" cx="110.5205" cy="-510.3782" rx="69.0256" ry="31.6406"/>
<text text-anchor="start" x="69.5446" y="-517.2782" font-family="Times,serif" font-size="14.00" fill="#000000">&quot;a~Parameter&quot;</text>
<text text-anchor="start" x="108.2705" y="-493.7782" font-family="Times,serif" font-size="9.00" fill="#000000">2</text>
</g>
<!-- 1&#45;&gt;2 -->
<g id="edge2" class="edge">
<title>1&#45;&gt;2</title>
<path fill="none" stroke="#000000" d="M110.5205,-597.9566C110.5205,-584.0096 110.5205,-567.4758 110.5205,-552.5515"/>
<polygon fill="#000000" stroke="#000000" points="114.0206,-552.5279 110.5205,-542.528 107.0206,-552.528 114.0206,-552.5279"/>
<polygon fill="#ffffff" stroke="transparent" points="111.0205,-560.1981 111.0205,-580.1981 122.0205,-580.1981 122.0205,-560.1981 111.0205,-560.1981"/>
<text text-anchor="start" x="113.0205" y="-565.5981" font-family="Times,serif" font-size="14.00" fill="#000000">1</text>
</g>
<!-- 3 -->
<g id="node4" class="node">
<title>3</title>
<ellipse fill="none" stroke="#000000" cx="110.5205" cy="-390.7386" rx="93.4788" ry="31.6406"/>
<text text-anchor="start" x="52.4135" y="-397.6386" font-family="Times,serif" font-size="14.00" fill="#000000">&quot;bool~BoolDomain&quot;</text>
<text text-anchor="start" x="108.2705" y="-374.1386" font-family="Times,serif" font-size="9.00" fill="#000000">3</text>
</g>
<!-- 2&#45;&gt;3 -->
<g id="edge3" class="edge">
<title>2&#45;&gt;3</title>
<path fill="none" stroke="#000000" d="M110.5205,-478.317C110.5205,-464.37 110.5205,-447.8362 110.5205,-432.9119"/>
<polygon fill="#000000" stroke="#000000" points="114.0206,-432.8883 110.5205,-422.8884 107.0206,-432.8884 114.0206,-432.8883"/>
<polygon fill="#ffffff" stroke="transparent" points="111.0205,-440.5584 111.0205,-460.5584 122.0205,-460.5584 122.0205,-440.5584 111.0205,-440.5584"/>
<text text-anchor="start" x="113.0205" y="-445.9584" font-family="Times,serif" font-size="14.00" fill="#000000">1</text>
</g>
<!-- 5 -->
<g id="node6" class="node">
<title>5</title>
<ellipse fill="none" stroke="#000000" cx="349.5205" cy="-510.3782" rx="69.636" ry="31.6406"/>
<text text-anchor="start" x="308.1519" y="-517.2782" font-family="Times,serif" font-size="14.00" fill="#000000">&quot;b~Parameter&quot;</text>
<text text-anchor="start" x="347.2705" y="-493.7782" font-family="Times,serif" font-size="9.00" fill="#000000">5</text>
</g>
<!-- 4&#45;&gt;5 -->
<g id="edge5" class="edge">
<title>4&#45;&gt;5</title>
<path fill="none" stroke="#000000" d="M349.5205,-597.9566C349.5205,-584.0096 349.5205,-567.4758 349.5205,-552.5515"/>
<polygon fill="#000000" stroke="#000000" points="353.0206,-552.5279 349.5205,-542.528 346.0206,-552.528 353.0206,-552.5279"/>
<polygon fill="#ffffff" stroke="transparent" points="350.0205,-560.1981 350.0205,-580.1981 361.0205,-580.1981 361.0205,-560.1981 350.0205,-560.1981"/>
<text text-anchor="start" x="352.0205" y="-565.5981" font-family="Times,serif" font-size="14.00" fill="#000000">1</text>
</g>
<!-- 6 -->
<g id="node7" class="node">
<title>6</title>
<ellipse fill="none" stroke="#000000" cx="349.5205" cy="-390.7386" rx="78.1697" ry="31.6406"/>
<text text-anchor="start" x="302.3062" y="-397.6386" font-family="Times,serif" font-size="14.00" fill="#000000">&quot;int~IntDomain&quot;</text>
<text text-anchor="start" x="347.2705" y="-374.1386" font-family="Times,serif" font-size="9.00" fill="#000000">6</text>
</g>
<!-- 5&#45;&gt;6 -->
<g id="edge6" class="edge">
<title>5&#45;&gt;6</title>
<path fill="none" stroke="#000000" d="M349.5205,-478.317C349.5205,-464.37 349.5205,-447.8362 349.5205,-432.9119"/>
<polygon fill="#000000" stroke="#000000" points="353.0206,-432.8883 349.5205,-422.8884 346.0206,-432.8884 353.0206,-432.8883"/>
<polygon fill="#ffffff" stroke="transparent" points="350.0205,-440.5584 350.0205,-460.5584 361.0205,-460.5584 361.0205,-440.5584 350.0205,-440.5584"/>
<text text-anchor="start" x="352.0205" y="-445.9584" font-family="Times,serif" font-size="14.00" fill="#000000">1</text>
</g>
<!-- 7 -->
<g id="node8" class="node">
<title>7</title>
<ellipse fill="none" stroke="#000000" cx="280.5205" cy="-271.099" rx="57.9499" ry="31.6406"/>
<text text-anchor="start" x="247.7031" y="-277.999" font-family="Times,serif" font-size="14.00" fill="#000000">&quot;1~Integer&quot;</text>
<text text-anchor="start" x="278.2705" y="-254.499" font-family="Times,serif" font-size="9.00" fill="#000000">7</text>
</g>
<!-- 6&#45;&gt;7 -->
<g id="edge7" class="edge">
<title>6&#45;&gt;7</title>
<path fill="none" stroke="#000000" d="M331.5717,-359.6171C322.9598,-344.6849 312.5447,-326.6261 303.3737,-310.7243"/>
<polygon fill="#000000" stroke="#000000" points="306.1686,-308.5648 298.1407,-301.6508 300.1048,-312.062 306.1686,-308.5648"/>
<polygon fill="#ffffff" stroke="transparent" points="320.0205,-320.9188 320.0205,-340.9188 331.0205,-340.9188 331.0205,-320.9188 320.0205,-320.9188"/>
<text text-anchor="start" x="322.0205" y="-326.3188" font-family="Times,serif" font-size="14.00" fill="#000000">1</text>
</g>
<!-- 8 -->
<g id="node9" class="node">
<title>8</title>
<ellipse fill="none" stroke="#000000" cx="418.5205" cy="-271.099" rx="62.849" ry="31.6406"/>
<text text-anchor="start" x="382.2031" y="-277.999" font-family="Times,serif" font-size="14.00" fill="#000000">&quot;10~Integer&quot;</text>
<text text-anchor="start" x="416.2705" y="-254.499" font-family="Times,serif" font-size="9.00" fill="#000000">8</text>
</g>
<!-- 6&#45;&gt;8 -->
<g id="edge8" class="edge">
<title>6&#45;&gt;8</title>
<path fill="none" stroke="#000000" d="M367.4693,-359.6171C376.0812,-344.6849 386.4963,-326.6261 395.6673,-310.7243"/>
<polygon fill="#000000" stroke="#000000" points="398.9362,-312.062 400.9003,-301.6508 392.8724,-308.5648 398.9362,-312.062"/>
<polygon fill="#ffffff" stroke="transparent" points="389.0205,-320.9188 389.0205,-340.9188 400.0205,-340.9188 400.0205,-320.9188 389.0205,-320.9188"/>
<text text-anchor="start" x="391.0205" y="-326.3188" font-family="Times,serif" font-size="14.00" fill="#000000">2</text>
</g>
<!-- 10 -->
<g id="node11" class="node">
<title>10</title>
<ellipse fill="none" stroke="#000000" cx="619.5205" cy="-510.3782" rx="50.6583" ry="31.6406"/>
<text text-anchor="start" x="591.7557" y="-517.2782" font-family="Times,serif" font-size="14.00" fill="#000000">&quot;c~Node&quot;</text>
<text text-anchor="start" x="615.0205" y="-493.7782" font-family="Times,serif" font-size="9.00" fill="#000000">10</text>
</g>
<!-- 9&#45;&gt;10 -->
<g id="edge10" class="edge">
<title>9&#45;&gt;10</title>
<path fill="none" stroke="#000000" d="M619.5205,-597.9566C619.5205,-584.0096 619.5205,-567.4758 619.5205,-552.5515"/>
<polygon fill="#000000" stroke="#000000" points="623.0206,-552.5279 619.5205,-542.528 616.0206,-552.528 623.0206,-552.5279"/>
<polygon fill="#ffffff" stroke="transparent" points="620.0205,-560.1981 620.0205,-580.1981 631.0205,-580.1981 631.0205,-560.1981 620.0205,-560.1981"/>
<text text-anchor="start" x="622.0205" y="-565.5981" font-family="Times,serif" font-size="14.00" fill="#000000">1</text>
</g>
<!-- 11 -->
<g id="node12" class="node">
<title>11</title>
<ellipse fill="none" stroke="#000000" cx="619.5205" cy="-390.7386" rx="57.9499" ry="31.6406"/>
<text text-anchor="start" x="586.7031" y="-397.6386" font-family="Times,serif" font-size="14.00" fill="#000000">&quot;5~Integer&quot;</text>
<text text-anchor="start" x="615.0205" y="-374.1386" font-family="Times,serif" font-size="9.00" fill="#000000">11</text>
</g>
<!-- 10&#45;&gt;11 -->
<g id="edge11" class="edge">
<title>10&#45;&gt;11</title>
<path fill="none" stroke="#000000" d="M619.5205,-478.317C619.5205,-464.37 619.5205,-447.8362 619.5205,-432.9119"/>
<polygon fill="#000000" stroke="#000000" points="623.0206,-432.8883 619.5205,-422.8884 616.0206,-432.8884 623.0206,-432.8883"/>
<polygon fill="#ffffff" stroke="transparent" points="620.0205,-440.5584 620.0205,-460.5584 631.0205,-460.5584 631.0205,-440.5584 620.0205,-440.5584"/>
<text text-anchor="start" x="622.0205" y="-445.9584" font-family="Times,serif" font-size="14.00" fill="#000000">1</text>
</g>
<!-- 13 -->
<g id="node14" class="node">
<title>13</title>
<ellipse fill="none" stroke="#000000" cx="877.5205" cy="-510.3782" rx="98.9158" ry="31.6406"/>
<text text-anchor="start" x="815.5467" y="-517.2782" font-family="Times,serif" font-size="14.00" fill="#000000">&quot;d~DecisionVariable&quot;</text>
<text text-anchor="start" x="873.0205" y="-493.7782" font-family="Times,serif" font-size="9.00" fill="#000000">13</text>
</g>
<!-- 12&#45;&gt;13 -->
<g id="edge13" class="edge">
<title>12&#45;&gt;13</title>
<path fill="none" stroke="#000000" d="M877.5205,-597.9566C877.5205,-584.0096 877.5205,-567.4758 877.5205,-552.5515"/>
<polygon fill="#000000" stroke="#000000" points="881.0206,-552.5279 877.5205,-542.528 874.0206,-552.528 881.0206,-552.5279"/>
<polygon fill="#ffffff" stroke="transparent" points="878.0205,-560.1981 878.0205,-580.1981 889.0205,-580.1981 889.0205,-560.1981 878.0205,-560.1981"/>
<text text-anchor="start" x="880.0205" y="-565.5981" font-family="Times,serif" font-size="14.00" fill="#000000">1</text>
</g>
<!-- 14 -->
<g id="node15" class="node">
<title>14</title>
<ellipse fill="none" stroke="#000000" cx="877.5205" cy="-390.7386" rx="93.4788" ry="31.6406"/>
<text text-anchor="start" x="819.4135" y="-397.6386" font-family="Times,serif" font-size="14.00" fill="#000000">&quot;bool~BoolDomain&quot;</text>
<text text-anchor="start" x="873.0205" y="-374.1386" font-family="Times,serif" font-size="9.00" fill="#000000">14</text>
</g>
<!-- 13&#45;&gt;14 -->
<g id="edge14" class="edge">
<title>13&#45;&gt;14</title>
<path fill="none" stroke="#000000" d="M877.5205,-478.317C877.5205,-464.37 877.5205,-447.8362 877.5205,-432.9119"/>
<polygon fill="#000000" stroke="#000000" points="881.0206,-432.8883 877.5205,-422.8884 874.0206,-432.8884 881.0206,-432.8883"/>
<polygon fill="#ffffff" stroke="transparent" points="878.0205,-440.5584 878.0205,-460.5584 889.0205,-460.5584 889.0205,-440.5584 878.0205,-440.5584"/>
<text text-anchor="start" x="880.0205" y="-445.9584" font-family="Times,serif" font-size="14.00" fill="#000000">1</text>
</g>
<!-- 16 -->
<g id="node17" class="node">
<title>16</title>
<ellipse fill="none" stroke="#000000" cx="1131.5205" cy="-510.3782" rx="101.0137" ry="31.6406"/>
<text text-anchor="start" x="1067.9213" y="-517.2782" font-family="Times,serif" font-size="14.00" fill="#000000">&quot;=~BinaryExpression&quot;</text>
<text text-anchor="start" x="1127.0205" y="-493.7782" font-family="Times,serif" font-size="9.00" fill="#000000">16</text>
</g>
<!-- 15&#45;&gt;16 -->
<g id="edge16" class="edge">
<title>15&#45;&gt;16</title>
<path fill="none" stroke="#000000" d="M1131.5205,-597.9566C1131.5205,-584.0096 1131.5205,-567.4758 1131.5205,-552.5515"/>
<polygon fill="#000000" stroke="#000000" points="1135.0206,-552.5279 1131.5205,-542.528 1128.0206,-552.528 1135.0206,-552.5279"/>
<polygon fill="#ffffff" stroke="transparent" points="1132.0205,-560.1981 1132.0205,-580.1981 1143.0205,-580.1981 1143.0205,-560.1981 1132.0205,-560.1981"/>
<text text-anchor="start" x="1134.0205" y="-565.5981" font-family="Times,serif" font-size="14.00" fill="#000000">1</text>
</g>
<!-- 17 -->
<g id="node18" class="node">
<title>17</title>
<ellipse fill="none" stroke="#000000" cx="1120.5205" cy="-390.7386" rx="120.2491" ry="31.6406"/>
<text text-anchor="start" x="1043.4029" y="-397.6386" font-family="Times,serif" font-size="14.00" fill="#000000">&quot;a~ReferenceToParameter&quot;</text>
<text text-anchor="start" x="1116.0205" y="-374.1386" font-family="Times,serif" font-size="9.00" fill="#000000">17</text>
</g>
<!-- 16&#45;&gt;17 -->
<g id="edge17" class="edge">
<title>16&#45;&gt;17</title>
<path fill="none" stroke="#000000" d="M1128.5727,-478.317C1127.2904,-464.37 1125.7702,-447.8362 1124.398,-432.9119"/>
<polygon fill="#000000" stroke="#000000" points="1127.8774,-432.5259 1123.4764,-422.8884 1120.9068,-433.1668 1127.8774,-432.5259"/>
<polygon fill="#ffffff" stroke="transparent" points="1128.0205,-440.5584 1128.0205,-460.5584 1139.0205,-460.5584 1139.0205,-440.5584 1128.0205,-440.5584"/>
<text text-anchor="start" x="1130.0205" y="-445.9584" font-family="Times,serif" font-size="14.00" fill="#000000">1</text>
</g>
<!-- 18 -->
<g id="node19" class="node">
<title>18</title>
<ellipse fill="none" stroke="#000000" cx="1372.5205" cy="-390.7386" rx="113.6166" ry="31.6406"/>
<text text-anchor="start" x="1300.046" y="-397.6386" font-family="Times,serif" font-size="14.00" fill="#000000">&quot;NOT~UnaryExpression&quot;</text>
<text text-anchor="start" x="1368.0205" y="-374.1386" font-family="Times,serif" font-size="9.00" fill="#000000">18</text>
</g>
<!-- 16&#45;&gt;18 -->
<g id="edge18" class="edge">
<title>16&#45;&gt;18</title>
<path fill="none" stroke="#000000" d="M1185.9061,-483.3796C1222.0217,-465.4507 1269.6135,-441.8248 1307.6958,-422.9196"/>
<polygon fill="#000000" stroke="#000000" points="1309.2599,-426.0507 1316.6607,-418.4691 1306.1473,-419.7808 1309.2599,-426.0507"/>
<polygon fill="#ffffff" stroke="transparent" points="1267.0205,-440.5584 1267.0205,-460.5584 1278.0205,-460.5584 1278.0205,-440.5584 1267.0205,-440.5584"/>
<text text-anchor="start" x="1269.0205" y="-445.9584" font-family="Times,serif" font-size="14.00" fill="#000000">2</text>
</g>
<!-- 19 -->
<g id="node20" class="node">
<title>19</title>
<ellipse fill="none" stroke="#000000" cx="1372.5205" cy="-271.099" rx="117.2273" ry="31.6406"/>
<text text-anchor="start" x="1297.7087" y="-277.999" font-family="Times,serif" font-size="14.00" fill="#000000">&quot;AND~BinaryExpression&quot;</text>
<text text-anchor="start" x="1368.0205" y="-254.499" font-family="Times,serif" font-size="9.00" fill="#000000">19</text>
</g>
<!-- 18&#45;&gt;19 -->
<g id="edge19" class="edge">
<title>18&#45;&gt;19</title>
<path fill="none" stroke="#000000" d="M1372.5205,-358.6774C1372.5205,-344.7304 1372.5205,-328.1965 1372.5205,-313.2722"/>
<polygon fill="#000000" stroke="#000000" points="1376.0206,-313.2487 1372.5205,-303.2487 1369.0206,-313.2488 1376.0206,-313.2487"/>
<polygon fill="#ffffff" stroke="transparent" points="1373.0205,-320.9188 1373.0205,-340.9188 1384.0205,-340.9188 1384.0205,-320.9188 1373.0205,-320.9188"/>
<text text-anchor="start" x="1375.0205" y="-326.3188" font-family="Times,serif" font-size="14.00" fill="#000000">1</text>
</g>
<!-- 20 -->
<g id="node21" class="node">
<title>20</title>
<ellipse fill="none" stroke="#000000" cx="1286.5205" cy="-151.4594" rx="150.14" ry="31.6406"/>
<text text-anchor="start" x="1188.405" y="-158.3594" font-family="Times,serif" font-size="14.00" fill="#000000">&quot;d~ReferenceToDecisionVariable&quot;</text>
<text text-anchor="start" x="1282.0205" y="-134.8594" font-family="Times,serif" font-size="9.00" fill="#000000">20</text>
</g>
<!-- 19&#45;&gt;20 -->
<g id="edge20" class="edge">
<title>19&#45;&gt;20</title>
<path fill="none" stroke="#000000" d="M1349.925,-239.6651C1339.3435,-224.9445 1326.6159,-207.2384 1315.3495,-191.5651"/>
<polygon fill="#000000" stroke="#000000" points="1317.9424,-189.1758 1309.2637,-183.0988 1312.2585,-193.2615 1317.9424,-189.1758"/>
<polygon fill="#ffffff" stroke="transparent" points="1336.0205,-201.2792 1336.0205,-221.2792 1347.0205,-221.2792 1347.0205,-201.2792 1336.0205,-201.2792"/>
<text text-anchor="start" x="1338.0205" y="-206.6792" font-family="Times,serif" font-size="14.00" fill="#000000">1</text>
</g>
<!-- 21 -->
<g id="node22" class="node">
<title>21</title>
<ellipse fill="none" stroke="#000000" cx="1595.5205" cy="-151.4594" rx="141.128" ry="31.6406"/>
<text text-anchor="start" x="1503.5965" y="-158.3594" font-family="Times,serif" font-size="14.00" fill="#000000">&quot;GREATER~BinaryExpression&quot;</text>
<text text-anchor="start" x="1591.0205" y="-134.8594" font-family="Times,serif" font-size="9.00" fill="#000000">21</text>
</g>
<!-- 19&#45;&gt;21 -->
<g id="edge21" class="edge">
<title>19&#45;&gt;21</title>
<path fill="none" stroke="#000000" d="M1425.6512,-242.5944C1457.4627,-225.5275 1498.1018,-203.7246 1531.6542,-185.7237"/>
<polygon fill="#000000" stroke="#000000" points="1533.3106,-188.807 1540.4679,-180.9952 1530.0013,-182.6386 1533.3106,-188.807"/>
<polygon fill="#ffffff" stroke="transparent" points="1498.0205,-201.2792 1498.0205,-221.2792 1509.0205,-221.2792 1509.0205,-201.2792 1498.0205,-201.2792"/>
<text text-anchor="start" x="1500.0205" y="-206.6792" font-family="Times,serif" font-size="14.00" fill="#000000">2</text>
</g>
<!-- 22 -->
<g id="node23" class="node">
<title>22</title>
<ellipse fill="none" stroke="#000000" cx="1453.5205" cy="-31.8198" rx="120.8597" ry="31.6406"/>
<text text-anchor="start" x="1376.0102" y="-38.7198" font-family="Times,serif" font-size="14.00" fill="#000000">&quot;b~ReferenceToParameter&quot;</text>
<text text-anchor="start" x="1449.0205" y="-15.2198" font-family="Times,serif" font-size="9.00" fill="#000000">22</text>
</g>
<!-- 21&#45;&gt;22 -->
<g id="edge22" class="edge">
<title>21&#45;&gt;22</title>
<path fill="none" stroke="#000000" d="M1558.952,-120.6492C1540.2353,-104.8799 1517.3066,-85.5617 1497.6173,-68.9728"/>
<polygon fill="#000000" stroke="#000000" points="1499.8678,-66.2922 1489.9651,-62.5256 1495.3575,-71.6455 1499.8678,-66.2922"/>
<polygon fill="#ffffff" stroke="transparent" points="1534.0205,-81.6396 1534.0205,-101.6396 1545.0205,-101.6396 1545.0205,-81.6396 1534.0205,-81.6396"/>
<text text-anchor="start" x="1536.0205" y="-87.0396" font-family="Times,serif" font-size="14.00" fill="#000000">1</text>
</g>
<!-- 23 -->
<g id="node24" class="node">
<title>23</title>
<ellipse fill="none" stroke="#000000" cx="1736.5205" cy="-31.8198" rx="144.0685" ry="31.6406"/>
<text text-anchor="start" x="1642.6729" y="-38.7198" font-family="Times,serif" font-size="14.00" fill="#000000">&quot;c~ReferenceToNamedConstant&quot;</text>
<text text-anchor="start" x="1732.0205" y="-15.2198" font-family="Times,serif" font-size="9.00" fill="#000000">23</text>
</g>
<!-- 21&#45;&gt;23 -->
<g id="edge23" class="edge">
<title>21&#45;&gt;23</title>
<path fill="none" stroke="#000000" d="M1631.8315,-120.6492C1650.1907,-105.0713 1672.6313,-86.0303 1692.0206,-69.5783"/>
<polygon fill="#000000" stroke="#000000" points="1694.4819,-72.0801 1699.8425,-62.9414 1689.953,-66.7425 1694.4819,-72.0801"/>
<polygon fill="#ffffff" stroke="transparent" points="1675.0205,-81.6396 1675.0205,-101.6396 1686.0205,-101.6396 1686.0205,-81.6396 1675.0205,-81.6396"/>
<text text-anchor="start" x="1677.0205" y="-87.0396" font-family="Times,serif" font-size="14.00" fill="#000000">2</text>
</g>
</g>
</svg>