<?xml version="1.0" encoding="utf-8" standalone="no"?>
<!DOCTYPE svg PUBLIC "-//W3C//DTD SVG 1.1//EN"
  "http://www.w3.org/Graphics/SVG/1.1/DTD/svg11.dtd">
<svg xmlns:xlink="http://www.w3.org/1999/xlink" width="460.8pt" height="345.6pt" viewBox="0 0 460.8 345.6" xmlns="http://www.w3.org/2000/svg" version="1.1">
 <metadata>
  <rdf:RDF xmlns:dc="http://purl.org/dc/elements/1.1/" xmlns:cc="http://creativecommons.org/ns#" xmlns:rdf="http://www.w3.org/1999/02/22-rdf-syntax-ns#">
   <cc:Work>
    <dc:type rdf:resource="http://purl.org/dc/dcmitype/StillImage"/>
    <dc:date>2024-04-23T23:37:31.187236</dc:date>
    <dc:format>image/svg+xml</dc:format>
    <dc:creator>
     <cc:Agent>
      <dc:title>Matplotlib v3.7.1, https://matplotlib.org/</dc:title>
     </cc:Agent>
    </dc:creator>
   </cc:Work>
  </rdf:RDF>
 </metadata>
 <defs>
  <style type="text/css">*{stroke-linejoin: round; stroke-linecap: butt}</style>
 </defs>
 <g id="figure_1">
  <g id="patch_1">
   <path d="M 0 345.6 
L 460.8 345.6 
L 460.8 0 
L 0 0 
z
" style="fill: #ffffff"/>
  </g>
  <g id="axes_1">
   <g id="LineCollection_1">
    <path d="M 367.88544 174.528 
L 315.9936 174.528 
" clip-path="url(#pc4fd6ae6a0)" style="fill: none; stroke: #000000"/>
    <path d="M 367.88544 174.528 
L 342.72812 251.954271 
" clip-path="url(#pc4fd6ae6a0)" style="fill: none; stroke: #000000"/>
    <path d="M 367.88544 174.528 
L 342.72812 97.101729 
" clip-path="url(#pc4fd6ae6a0)" style="fill: none; stroke: #000000"/>
    <path d="M 315.9936 174.528 
L 260.829939 250.454265 
" clip-path="url(#pc4fd6ae6a0)" style="fill: none; stroke: #000000"/>
    <path d="M 315.9936 174.528 
L 260.829939 98.601735 
" clip-path="url(#pc4fd6ae6a0)" style="fill: none; stroke: #000000"/>
    <path d="M 260.829939 250.454265 
L 276.8654 299.806338 
" clip-path="url(#pc4fd6ae6a0)" style="fill: none; stroke: #000000"/>
    <path d="M 260.829939 250.454265 
L 171.573261 221.453013 
" clip-path="url(#pc4fd6ae6a0)" style="fill: none; stroke: #000000"/>
    <path d="M 276.8654 299.806338 
L 195.4546 299.806338 
" clip-path="url(#pc4fd6ae6a0)" style="fill: none; stroke: #000000"/>
    <path d="M 276.8654 299.806338 
L 342.72812 251.954271 
" clip-path="url(#pc4fd6ae6a0)" style="fill: none; stroke: #000000"/>
    <path d="M 195.4546 299.806338 
L 129.59188 251.954271 
" clip-path="url(#pc4fd6ae6a0)" style="fill: none; stroke: #000000"/>
    <path d="M 195.4546 299.806338 
L 211.490061 250.454265 
" clip-path="url(#pc4fd6ae6a0)" style="fill: none; stroke: #000000"/>
    <path d="M 129.59188 251.954271 
L 171.573261 221.453013 
" clip-path="url(#pc4fd6ae6a0)" style="fill: none; stroke: #000000"/>
    <path d="M 129.59188 251.954271 
L 104.43456 174.528 
" clip-path="url(#pc4fd6ae6a0)" style="fill: none; stroke: #000000"/>
    <path d="M 171.573261 221.453013 
L 171.573261 127.602987 
" clip-path="url(#pc4fd6ae6a0)" style="fill: none; stroke: #000000"/>
    <path d="M 171.573261 127.602987 
L 260.829939 98.601735 
" clip-path="url(#pc4fd6ae6a0)" style="fill: none; stroke: #000000"/>
    <path d="M 171.573261 127.602987 
L 129.59188 97.101729 
" clip-path="url(#pc4fd6ae6a0)" style="fill: none; stroke: #000000"/>
    <path d="M 260.829939 98.601735 
L 276.8654 49.249662 
" clip-path="url(#pc4fd6ae6a0)" style="fill: none; stroke: #000000"/>
    <path d="M 276.8654 49.249662 
L 342.72812 97.101729 
" clip-path="url(#pc4fd6ae6a0)" style="fill: none; stroke: #000000"/>
    <path d="M 276.8654 49.249662 
L 195.4546 49.249662 
" clip-path="url(#pc4fd6ae6a0)" style="fill: none; stroke: #000000"/>
    <path d="M 342.72812 97.101729 
L 300.746739 127.602987 
" clip-path="url(#pc4fd6ae6a0)" style="fill: none; stroke: #000000"/>
    <path d="M 300.746739 127.602987 
L 211.490061 98.601735 
" clip-path="url(#pc4fd6ae6a0)" style="fill: none; stroke: #000000"/>
    <path d="M 300.746739 127.602987 
L 300.746739 221.453013 
" clip-path="url(#pc4fd6ae6a0)" style="fill: none; stroke: #000000"/>
    <path d="M 211.490061 98.601735 
L 195.4546 49.249662 
" clip-path="url(#pc4fd6ae6a0)" style="fill: none; stroke: #000000"/>
    <path d="M 211.490061 98.601735 
L 156.3264 174.528 
" clip-path="url(#pc4fd6ae6a0)" style="fill: none; stroke: #000000"/>
    <path d="M 195.4546 49.249662 
L 129.59188 97.101729 
" clip-path="url(#pc4fd6ae6a0)" style="fill: none; stroke: #000000"/>
    <path d="M 129.59188 97.101729 
L 104.43456 174.528 
" clip-path="url(#pc4fd6ae6a0)" style="fill: none; stroke: #000000"/>
    <path d="M 104.43456 174.528 
L 156.3264 174.528 
" clip-path="url(#pc4fd6ae6a0)" style="fill: none; stroke: #000000"/>
    <path d="M 156.3264 174.528 
L 211.490061 250.454265 
" clip-path="url(#pc4fd6ae6a0)" style="fill: none; stroke: #000000"/>
    <path d="M 211.490061 250.454265 
L 300.746739 221.453013 
" clip-path="url(#pc4fd6ae6a0)" style="fill: none; stroke: #000000"/>
    <path d="M 300.746739 221.453013 
L 342.72812 251.954271 
" clip-path="url(#pc4fd6ae6a0)" style="fill: none; stroke: #000000"/>
   </g>
   <g id="patch_2">
    <path d="M 379.86048 174.528 
C 379.86048 171.999513 379.059658 169.534837 377.573451 167.489248 
C 376.087243 165.443659 373.990665 163.920406 371.585931 163.13906 
L 367.88544 174.528 
z
" style="stroke: #000000; stroke-width: 0.5; stroke-linejoin: miter"/>
   </g>
   <g id="patch_3">
    <path d="M 371.585931 163.13906 
C 369.181196 162.357715 366.589683 162.357715 364.184949 163.13906 
C 361.780215 163.920406 359.683636 165.443659 358.197429 167.489248 
L 367.88544 174.528 
z
" style="fill: #0000d8; stroke: #000000; stroke-width: 0.5; stroke-linejoin: miter"/>
   </g>
   <g id="patch_4">
    <path d="M 358.197429 167.489248 
C 356.711221 169.534838 355.9104 171.999513 355.9104 174.528001 
C 355.9104 177.056488 356.711222 179.521163 358.19743 181.566752 
L 367.88544 174.528 
z
" style="fill: #0000ff; stroke: #000000; stroke-width: 0.5; stroke-linejoin: miter"/>
   </g>
   <g id="patch_5">
    <path d="M 358.19743 181.566752 
C 359.683637 183.612342 361.780216 185.135595 364.18495 185.91694 
C 366.589684 186.698285 369.181198 186.698285 371.585932 185.91694 
L 367.88544 174.528 
z
" style="fill: #d80000; stroke: #000000; stroke-width: 0.5; stroke-linejoin: miter"/>
   </g>
   <g id="patch_6">
    <path d="M 371.585932 185.91694 
C 373.990666 185.135594 376.087244 183.61234 377.573451 181.566751 
C 379.059659 179.521162 379.86048 177.056486 379.86048 174.527999 
L 367.88544 174.528 
z
" style="fill: #ff0000; stroke: #000000; stroke-width: 0.5; stroke-linejoin: miter"/>
   </g>
   <g id="patch_7">
    <path d="M 327.96864 174.528 
C 327.96864 171.999513 327.167818 169.534837 325.681611 167.489248 
C 324.195403 165.443659 322.098825 163.920406 319.694091 163.13906 
L 315.9936 174.528 
z
" style="fill: #d800d8; stroke: #000000; stroke-width: 0.5; stroke-linejoin: miter"/>
   </g>
   <g id="patch_8">
    <path d="M 319.694091 163.13906 
C 317.289356 162.357715 314.697843 162.357715 312.293109 163.13906 
C 309.888375 163.920406 307.791796 165.443659 306.305589 167.489248 
L 315.9936 174.528 
z
" style="fill: #ff00ff; stroke: #000000; stroke-width: 0.5; stroke-linejoin: miter"/>
   </g>
   <g id="patch_9">
    <path d="M 306.305589 167.489248 
C 304.819381 169.534838 304.01856 171.999513 304.01856 174.528001 
C 304.01856 177.056488 304.819382 179.521163 306.30559 181.566752 
L 315.9936 174.528 
z
" style="fill: #00d800; stroke: #000000; stroke-width: 0.5; stroke-linejoin: miter"/>
   </g>
   <g id="patch_10">
    <path d="M 306.30559 181.566752 
C 307.791797 183.612342 309.888376 185.135595 312.29311 185.91694 
C 314.697844 186.698285 317.289358 186.698285 319.694092 185.91694 
L 315.9936 174.528 
z
" style="fill: #00ff00; stroke: #000000; stroke-width: 0.5; stroke-linejoin: miter"/>
   </g>
   <g id="patch_11">
    <path d="M 319.694092 185.91694 
C 322.098826 185.135594 324.195404 183.61234 325.681611 181.566751 
C 327.167819 179.521162 327.96864 177.056486 327.96864 174.527999 
L 315.9936 174.528 
z
" style="fill: #00d8d8; stroke: #000000; stroke-width: 0.5; stroke-linejoin: miter"/>
   </g>
   <g id="patch_12">
    <path d="M 272.804979 250.454265 
C 272.804979 247.925778 272.004157 245.461103 270.51795 243.415514 
C 269.031742 241.369924 266.935164 239.846671 264.53043 239.065326 
L 260.829939 250.454265 
z
" style="stroke: #000000; stroke-width: 0.5; stroke-linejoin: miter"/>
   </g>
   <g id="patch_13">
    <path d="M 264.53043 239.065326 
C 262.125696 238.28398 259.534182 238.28398 257.129448 239.065326 
C 254.724714 239.846671 252.628135 241.369925 251.141928 243.415514 
L 260.829939 250.454265 
z
" style="fill: #0000d8; stroke: #000000; stroke-width: 0.5; stroke-linejoin: miter"/>
   </g>
   <g id="patch_14">
    <path d="M 251.141928 243.415514 
C 249.655721 245.461103 248.854899 247.925779 248.854899 250.454266 
C 248.854899 252.982753 249.655721 255.447429 251.141929 257.493018 
L 260.829939 250.454265 
z
" style="fill: #0000ff; stroke: #000000; stroke-width: 0.5; stroke-linejoin: miter"/>
   </g>
   <g id="patch_15">
    <path d="M 251.141929 257.493018 
C 252.628136 259.538607 254.724715 261.06186 257.129449 261.843206 
C 259.534183 262.624551 262.125697 262.624551 264.530431 261.843205 
L 260.829939 250.454265 
z
" style="fill: #00ffff; stroke: #000000; stroke-width: 0.5; stroke-linejoin: miter"/>
   </g>
   <g id="patch_16">
    <path d="M 264.530431 261.843205 
C 266.935165 261.061859 269.031743 259.538606 270.517951 257.493017 
C 272.004158 255.447427 272.804979 252.982752 272.804979 250.454264 
L 260.829939 250.454265 
z
" style="fill: #d8d800; stroke: #000000; stroke-width: 0.5; stroke-linejoin: miter"/>
   </g>
   <g id="patch_17">
    <path d="M 288.84044 299.806338 
C 288.84044 297.277851 288.039618 294.813175 286.55341 292.767586 
C 285.067203 290.721997 282.970624 289.198744 280.56589 288.417398 
L 276.8654 299.806338 
z
" style="fill: #d80000; stroke: #000000; stroke-width: 0.5; stroke-linejoin: miter"/>
   </g>
   <g id="patch_18">
    <path d="M 280.56589 288.417398 
C 278.161156 287.636053 275.569643 287.636053 273.164908 288.417398 
C 270.760174 289.198744 268.663596 290.721997 267.177388 292.767587 
L 276.8654 299.806338 
z
" style="fill: #ff0000; stroke: #000000; stroke-width: 0.5; stroke-linejoin: miter"/>
   </g>
   <g id="patch_19">
    <path d="M 267.177388 292.767587 
C 265.691181 294.813176 264.890359 297.277851 264.89036 299.806339 
C 264.89036 302.334826 265.691181 304.799501 267.177389 306.845091 
L 276.8654 299.806338 
z
" style="fill: #d800d8; stroke: #000000; stroke-width: 0.5; stroke-linejoin: miter"/>
   </g>
   <g id="patch_20">
    <path d="M 267.177389 306.845091 
C 268.663597 308.89068 270.760175 310.413933 273.164909 311.195278 
C 275.569644 311.976624 278.161157 311.976623 280.565891 311.195278 
L 276.8654 299.806338 
z
" style="fill: #ff00ff; stroke: #000000; stroke-width: 0.5; stroke-linejoin: miter"/>
   </g>
   <g id="patch_21">
    <path d="M 280.565891 311.195278 
C 282.970625 310.413932 285.067204 308.890678 286.553411 306.845089 
C 288.039618 304.7995 288.84044 302.334824 288.84044 299.806337 
L 276.8654 299.806338 
z
" style="fill: #00d800; stroke: #000000; stroke-width: 0.5; stroke-linejoin: miter"/>
   </g>
   <g id="patch_22">
    <path d="M 207.42964 299.806338 
C 207.42964 297.277851 206.628819 294.813175 205.142611 292.767586 
C 203.656404 290.721997 201.559825 289.198744 199.155091 288.417398 
L 195.4546 299.806338 
z
" style="stroke: #000000; stroke-width: 0.5; stroke-linejoin: miter"/>
   </g>
   <g id="patch_23">
    <path d="M 199.155091 288.417398 
C 196.750357 287.636053 194.158843 287.636053 191.754109 288.417398 
C 189.349375 289.198744 187.252797 290.721997 185.766589 292.767587 
L 195.4546 299.806338 
z
" style="fill: #0000d8; stroke: #000000; stroke-width: 0.5; stroke-linejoin: miter"/>
   </g>
   <g id="patch_24">
    <path d="M 185.766589 292.767587 
C 184.280382 294.813176 183.47956 297.277851 183.47956 299.806339 
C 183.479561 302.334826 184.280382 304.799501 185.76659 306.845091 
L 195.4546 299.806338 
z
" style="fill: #0000ff; stroke: #000000; stroke-width: 0.5; stroke-linejoin: miter"/>
   </g>
   <g id="patch_25">
    <path d="M 185.76659 306.845091 
C 187.252798 308.89068 189.349376 310.413933 191.75411 311.195278 
C 194.158845 311.976624 196.750358 311.976623 199.155092 311.195278 
L 195.4546 299.806338 
z
" style="fill: #00ff00; stroke: #000000; stroke-width: 0.5; stroke-linejoin: miter"/>
   </g>
   <g id="patch_26">
    <path d="M 199.155092 311.195278 
C 201.559826 310.413932 203.656405 308.890678 205.142612 306.845089 
C 206.628819 304.7995 207.429641 302.334824 207.42964 299.806337 
L 195.4546 299.806338 
z
" style="fill: #00d8d8; stroke: #000000; stroke-width: 0.5; stroke-linejoin: miter"/>
   </g>
   <g id="patch_27">
    <path d="M 141.56692 251.954271 
C 141.56692 249.425784 140.766099 246.961108 139.279891 244.915519 
C 137.793684 242.86993 135.697105 241.346677 133.292371 240.565331 
L 129.59188 251.954271 
z
" style="fill: #d80000; stroke: #000000; stroke-width: 0.5; stroke-linejoin: miter"/>
   </g>
   <g id="patch_28">
    <path d="M 133.292371 240.565331 
C 130.887637 239.783986 128.296123 239.783986 125.891389 240.565331 
C 123.486655 241.346677 121.390077 242.86993 119.903869 244.915519 
L 129.59188 251.954271 
z
" style="fill: #d800d8; stroke: #000000; stroke-width: 0.5; stroke-linejoin: miter"/>
   </g>
   <g id="patch_29">
    <path d="M 119.903869 244.915519 
C 118.417662 246.961109 117.61684 249.425784 117.61684 251.954272 
C 117.616841 254.482759 118.417662 256.947434 119.90387 258.993023 
L 129.59188 251.954271 
z
" style="fill: #ff00ff; stroke: #000000; stroke-width: 0.5; stroke-linejoin: miter"/>
   </g>
   <g id="patch_30">
    <path d="M 119.90387 258.993023 
C 121.390078 261.038612 123.486656 262.561866 125.89139 263.343211 
C 128.296125 264.124556 130.887638 264.124556 133.292372 263.343211 
L 129.59188 251.954271 
z
" style="fill: #00ffff; stroke: #000000; stroke-width: 0.5; stroke-linejoin: miter"/>
   </g>
   <g id="patch_31">
    <path d="M 133.292372 263.343211 
C 135.697106 262.561865 137.793685 261.038611 139.279892 258.993022 
C 140.766099 256.947433 141.566921 254.482757 141.56692 251.95427 
L 129.59188 251.954271 
z
" style="fill: #d8d800; stroke: #000000; stroke-width: 0.5; stroke-linejoin: miter"/>
   </g>
   <g id="patch_32">
    <path d="M 183.548301 221.453013 
C 183.548301 218.924525 182.747479 216.45985 181.261272 214.414261 
C 179.775064 212.368672 177.678486 210.845418 175.273752 210.064073 
L 171.573261 221.453013 
z
" style="fill: #ff0000; stroke: #000000; stroke-width: 0.5; stroke-linejoin: miter"/>
   </g>
   <g id="patch_33">
    <path d="M 175.273752 210.064073 
C 172.869017 209.282727 170.277504 209.282727 167.87277 210.064073 
C 165.468035 210.845419 163.371457 212.368672 161.88525 214.414261 
L 171.573261 221.453013 
z
" style="fill: #00d800; stroke: #000000; stroke-width: 0.5; stroke-linejoin: miter"/>
   </g>
   <g id="patch_34">
    <path d="M 161.88525 214.414261 
C 160.399042 216.45985 159.598221 218.924526 159.598221 221.453013 
C 159.598221 223.981501 160.399043 226.446176 161.88525 228.491765 
L 171.573261 221.453013 
z
" style="fill: #00ff00; stroke: #000000; stroke-width: 0.5; stroke-linejoin: miter"/>
   </g>
   <g id="patch_35">
    <path d="M 161.88525 228.491765 
C 163.371458 230.537354 165.468036 232.060607 167.872771 232.841953 
C 170.277505 233.623298 172.869018 233.623298 175.273753 232.841952 
L 171.573261 221.453013 
z
" style="fill: #00d8d8; stroke: #000000; stroke-width: 0.5; stroke-linejoin: miter"/>
   </g>
   <g id="patch_36">
    <path d="M 175.273753 232.841952 
C 177.678487 232.060607 179.775065 230.537353 181.261272 228.491764 
C 182.74748 226.446175 183.548301 223.981499 183.548301 221.453012 
L 171.573261 221.453013 
z
" style="fill: #ffff00; stroke: #000000; stroke-width: 0.5; stroke-linejoin: miter"/>
   </g>
   <g id="patch_37">
    <path d="M 183.548301 127.602987 
C 183.548301 125.0745 182.747479 122.609824 181.261272 120.564235 
C 179.775064 118.518646 177.678486 116.995393 175.273752 116.214047 
L 171.573261 127.602987 
z
" style="stroke: #000000; stroke-width: 0.5; stroke-linejoin: miter"/>
   </g>
   <g id="patch_38">
    <path d="M 175.273752 116.214047 
C 172.869017 115.432702 170.277504 115.432702 167.87277 116.214048 
C 165.468035 116.995393 163.371457 118.518647 161.88525 120.564236 
L 171.573261 127.602987 
z
" style="fill: #0000d8; stroke: #000000; stroke-width: 0.5; stroke-linejoin: miter"/>
   </g>
   <g id="patch_39">
    <path d="M 161.88525 120.564236 
C 160.399042 122.609825 159.598221 125.074501 159.598221 127.602988 
C 159.598221 130.131475 160.399043 132.596151 161.88525 134.64174 
L 171.573261 127.602987 
z
" style="fill: #0000ff; stroke: #000000; stroke-width: 0.5; stroke-linejoin: miter"/>
   </g>
   <g id="patch_40">
    <path d="M 161.88525 134.64174 
C 163.371458 136.687329 165.468036 138.210582 167.872771 138.991927 
C 170.277505 139.773273 172.869018 139.773273 175.273753 138.991927 
L 171.573261 127.602987 
z
" style="fill: #d800d8; stroke: #000000; stroke-width: 0.5; stroke-linejoin: miter"/>
   </g>
   <g id="patch_41">
    <path d="M 175.273753 138.991927 
C 177.678487 138.210581 179.775065 136.687328 181.261272 134.641738 
C 182.74748 132.596149 183.548301 130.131473 183.548301 127.602986 
L 171.573261 127.602987 
z
" style="fill: #ff00ff; stroke: #000000; stroke-width: 0.5; stroke-linejoin: miter"/>
   </g>
   <g id="patch_42">
    <path d="M 272.804979 98.601735 
C 272.804979 96.073247 272.004157 93.608572 270.51795 91.562983 
C 269.031742 89.517393 266.935164 87.99414 264.53043 87.212795 
L 260.829939 98.601735 
z
" style="fill: #d80000; stroke: #000000; stroke-width: 0.5; stroke-linejoin: miter"/>
   </g>
   <g id="patch_43">
    <path d="M 264.53043 87.212795 
C 262.125696 86.431449 259.534182 86.431449 257.129448 87.212795 
C 254.724714 87.99414 252.628135 89.517394 251.141928 91.562983 
L 260.829939 98.601735 
z
" style="fill: #ff0000; stroke: #000000; stroke-width: 0.5; stroke-linejoin: miter"/>
   </g>
   <g id="patch_44">
    <path d="M 251.141928 91.562983 
C 249.655721 93.608572 248.854899 96.073248 248.854899 98.601735 
C 248.854899 101.130222 249.655721 103.594898 251.141929 105.640487 
L 260.829939 98.601735 
z
" style="fill: #00ffff; stroke: #000000; stroke-width: 0.5; stroke-linejoin: miter"/>
   </g>
   <g id="patch_45">
    <path d="M 251.141929 105.640487 
C 252.628136 107.686076 254.724715 109.209329 257.129449 109.990675 
C 259.534183 110.77202 262.125697 110.77202 264.530431 109.990674 
L 260.829939 98.601735 
z
" style="fill: #d8d800; stroke: #000000; stroke-width: 0.5; stroke-linejoin: miter"/>
   </g>
   <g id="patch_46">
    <path d="M 264.530431 109.990674 
C 266.935165 109.209328 269.031743 107.686075 270.517951 105.640486 
C 272.004158 103.594896 272.804979 101.130221 272.804979 98.601733 
L 260.829939 98.601735 
z
" style="fill: #ffff00; stroke: #000000; stroke-width: 0.5; stroke-linejoin: miter"/>
   </g>
   <g id="patch_47">
    <path d="M 288.84044 49.249662 
C 288.84044 46.721175 288.039618 44.256499 286.55341 42.21091 
C 285.067203 40.165321 282.970624 38.642068 280.56589 37.860722 
L 276.8654 49.249662 
z
" style="stroke: #000000; stroke-width: 0.5; stroke-linejoin: miter"/>
   </g>
   <g id="patch_48">
    <path d="M 280.56589 37.860722 
C 278.161156 37.079377 275.569643 37.079377 273.164908 37.860722 
C 270.760174 38.642068 268.663596 40.165321 267.177388 42.21091 
L 276.8654 49.249662 
z
" style="fill: #0000d8; stroke: #000000; stroke-width: 0.5; stroke-linejoin: miter"/>
   </g>
   <g id="patch_49">
    <path d="M 267.177388 42.21091 
C 265.691181 44.2565 264.890359 46.721175 264.89036 49.249662 
C 264.89036 51.77815 265.691181 54.242825 267.177389 56.288414 
L 276.8654 49.249662 
z
" style="fill: #0000ff; stroke: #000000; stroke-width: 0.5; stroke-linejoin: miter"/>
   </g>
   <g id="patch_50">
    <path d="M 267.177389 56.288414 
C 268.663597 58.334003 270.760175 59.857257 273.164909 60.638602 
C 275.569644 61.419947 278.161157 61.419947 280.565891 60.638601 
L 276.8654 49.249662 
z
" style="fill: #00d800; stroke: #000000; stroke-width: 0.5; stroke-linejoin: miter"/>
   </g>
   <g id="patch_51">
    <path d="M 280.565891 60.638601 
C 282.970625 59.857256 285.067204 58.334002 286.553411 56.288413 
C 288.039618 54.242824 288.84044 51.778148 288.84044 49.249661 
L 276.8654 49.249662 
z
" style="fill: #00ff00; stroke: #000000; stroke-width: 0.5; stroke-linejoin: miter"/>
   </g>
   <g id="patch_52">
    <path d="M 354.70316 97.101729 
C 354.70316 94.573242 353.902338 92.108566 352.41613 90.062977 
C 350.929923 88.017388 348.833344 86.494135 346.42861 85.712789 
L 342.72812 97.101729 
z
" style="fill: #d800d8; stroke: #000000; stroke-width: 0.5; stroke-linejoin: miter"/>
   </g>
   <g id="patch_53">
    <path d="M 346.42861 85.712789 
C 344.023876 84.931444 341.432363 84.931444 339.027628 85.712789 
C 336.622894 86.494135 334.526316 88.017388 333.040108 90.062977 
L 342.72812 97.101729 
z
" style="fill: #ff00ff; stroke: #000000; stroke-width: 0.5; stroke-linejoin: miter"/>
   </g>
   <g id="patch_54">
    <path d="M 333.040108 90.062977 
C 331.553901 92.108567 330.753079 94.573242 330.75308 97.10173 
C 330.75308 99.630217 331.553901 102.094892 333.040109 104.140481 
L 342.72812 97.101729 
z
" style="fill: #00d8d8; stroke: #000000; stroke-width: 0.5; stroke-linejoin: miter"/>
   </g>
   <g id="patch_55">
    <path d="M 333.040109 104.140481 
C 334.526317 106.186071 336.622895 107.709324 339.027629 108.490669 
C 341.432364 109.272014 344.023877 109.272014 346.428611 108.490669 
L 342.72812 97.101729 
z
" style="fill: #00ffff; stroke: #000000; stroke-width: 0.5; stroke-linejoin: miter"/>
   </g>
   <g id="patch_56">
    <path d="M 346.428611 108.490669 
C 348.833345 107.709323 350.929924 106.186069 352.416131 104.14048 
C 353.902338 102.094891 354.70316 99.630215 354.70316 97.101728 
L 342.72812 97.101729 
z
" style="fill: #d8d800; stroke: #000000; stroke-width: 0.5; stroke-linejoin: miter"/>
   </g>
   <g id="patch_57">
    <path d="M 312.721779 127.602987 
C 312.721779 125.0745 311.920957 122.609824 310.43475 120.564235 
C 308.948542 118.518646 306.851964 116.995393 304.44723 116.214047 
L 300.746739 127.602987 
z
" style="fill: #d80000; stroke: #000000; stroke-width: 0.5; stroke-linejoin: miter"/>
   </g>
   <g id="patch_58">
    <path d="M 304.44723 116.214047 
C 302.042496 115.432702 299.450982 115.432702 297.046248 116.214048 
C 294.641514 116.995393 292.544935 118.518647 291.058728 120.564236 
L 300.746739 127.602987 
z
" style="fill: #ff0000; stroke: #000000; stroke-width: 0.5; stroke-linejoin: miter"/>
   </g>
   <g id="patch_59">
    <path d="M 291.058728 120.564236 
C 289.572521 122.609825 288.771699 125.074501 288.771699 127.602988 
C 288.771699 130.131475 289.572521 132.596151 291.058729 134.64174 
L 300.746739 127.602987 
z
" style="fill: #00d800; stroke: #000000; stroke-width: 0.5; stroke-linejoin: miter"/>
   </g>
   <g id="patch_60">
    <path d="M 291.058729 134.64174 
C 292.544936 136.687329 294.641515 138.210582 297.046249 138.991927 
C 299.450983 139.773273 302.042497 139.773273 304.447231 138.991927 
L 300.746739 127.602987 
z
" style="fill: #00ff00; stroke: #000000; stroke-width: 0.5; stroke-linejoin: miter"/>
   </g>
   <g id="patch_61">
    <path d="M 304.447231 138.991927 
C 306.851965 138.210581 308.948543 136.687328 310.434751 134.641738 
C 311.920958 132.596149 312.721779 130.131473 312.721779 127.602986 
L 300.746739 127.602987 
z
" style="fill: #ffff00; stroke: #000000; stroke-width: 0.5; stroke-linejoin: miter"/>
   </g>
   <g id="patch_62">
    <path d="M 223.465101 98.601735 
C 223.465101 96.073247 222.664279 93.608572 221.178072 91.562983 
C 219.691864 89.517393 217.595286 87.99414 215.190552 87.212795 
L 211.490061 98.601735 
z
" style="stroke: #000000; stroke-width: 0.5; stroke-linejoin: miter"/>
   </g>
   <g id="patch_63">
    <path d="M 215.190552 87.212795 
C 212.785817 86.431449 210.194304 86.431449 207.78957 87.212795 
C 205.384835 87.99414 203.288257 89.517394 201.80205 91.562983 
L 211.490061 98.601735 
z
" style="fill: #0000d8; stroke: #000000; stroke-width: 0.5; stroke-linejoin: miter"/>
   </g>
   <g id="patch_64">
    <path d="M 201.80205 91.562983 
C 200.315842 93.608572 199.515021 96.073248 199.515021 98.601735 
C 199.515021 101.130222 200.315843 103.594898 201.80205 105.640487 
L 211.490061 98.601735 
z
" style="fill: #0000ff; stroke: #000000; stroke-width: 0.5; stroke-linejoin: miter"/>
   </g>
   <g id="patch_65">
    <path d="M 201.80205 105.640487 
C 203.288258 107.686076 205.384836 109.209329 207.789571 109.990675 
C 210.194305 110.77202 212.785818 110.77202 215.190553 109.990674 
L 211.490061 98.601735 
z
" style="fill: #00ffff; stroke: #000000; stroke-width: 0.5; stroke-linejoin: miter"/>
   </g>
   <g id="patch_66">
    <path d="M 215.190553 109.990674 
C 217.595287 109.209328 219.691865 107.686075 221.178072 105.640486 
C 222.66428 103.594896 223.465101 101.130221 223.465101 98.601733 
L 211.490061 98.601735 
z
" style="fill: #d8d800; stroke: #000000; stroke-width: 0.5; stroke-linejoin: miter"/>
   </g>
   <g id="patch_67">
    <path d="M 207.42964 49.249662 
C 207.42964 46.721175 206.628819 44.256499 205.142611 42.21091 
C 203.656404 40.165321 201.559825 38.642068 199.155091 37.860722 
L 195.4546 49.249662 
z
" style="fill: #d80000; stroke: #000000; stroke-width: 0.5; stroke-linejoin: miter"/>
   </g>
   <g id="patch_68">
    <path d="M 199.155091 37.860722 
C 196.750357 37.079377 194.158843 37.079377 191.754109 37.860722 
C 189.349375 38.642068 187.252797 40.165321 185.766589 42.21091 
L 195.4546 49.249662 
z
" style="fill: #ff0000; stroke: #000000; stroke-width: 0.5; stroke-linejoin: miter"/>
   </g>
   <g id="patch_69">
    <path d="M 185.766589 42.21091 
C 184.280382 44.2565 183.47956 46.721175 183.47956 49.249662 
C 183.479561 51.77815 184.280382 54.242825 185.76659 56.288414 
L 195.4546 49.249662 
z
" style="fill: #d800d8; stroke: #000000; stroke-width: 0.5; stroke-linejoin: miter"/>
   </g>
   <g id="patch_70">
    <path d="M 185.76659 56.288414 
C 187.252798 58.334003 189.349376 59.857257 191.75411 60.638602 
C 194.158845 61.419947 196.750358 61.419947 199.155092 60.638601 
L 195.4546 49.249662 
z
" style="fill: #ff00ff; stroke: #000000; stroke-width: 0.5; stroke-linejoin: miter"/>
   </g>
   <g id="patch_71">
    <path d="M 199.155092 60.638601 
C 201.559826 59.857256 203.656405 58.334002 205.142612 56.288413 
C 206.628819 54.242824 207.429641 51.778148 207.42964 49.249661 
L 195.4546 49.249662 
z
" style="fill: #ffff00; stroke: #000000; stroke-width: 0.5; stroke-linejoin: miter"/>
   </g>
   <g id="patch_72">
    <path d="M 141.56692 97.101729 
C 141.56692 94.573242 140.766099 92.108566 139.279891 90.062977 
C 137.793684 88.017388 135.697105 86.494135 133.292371 85.712789 
L 129.59188 97.101729 
z
" style="fill: #00d800; stroke: #000000; stroke-width: 0.5; stroke-linejoin: miter"/>
   </g>
   <g id="patch_73">
    <path d="M 133.292371 85.712789 
C 130.887637 84.931444 128.296123 84.931444 125.891389 85.712789 
C 123.486655 86.494135 121.390077 88.017388 119.903869 90.062977 
L 129.59188 97.101729 
z
" style="fill: #00ff00; stroke: #000000; stroke-width: 0.5; stroke-linejoin: miter"/>
   </g>
   <g id="patch_74">
    <path d="M 119.903869 90.062977 
C 118.417662 92.108567 117.61684 94.573242 117.61684 97.10173 
C 117.616841 99.630217 118.417662 102.094892 119.90387 104.140481 
L 129.59188 97.101729 
z
" style="fill: #00d8d8; stroke: #000000; stroke-width: 0.5; stroke-linejoin: miter"/>
   </g>
   <g id="patch_75">
    <path d="M 119.90387 104.140481 
C 121.390078 106.186071 123.486656 107.709324 125.89139 108.490669 
C 128.296125 109.272014 130.887638 109.272014 133.292372 108.490669 
L 129.59188 97.101729 
z
" style="fill: #00ffff; stroke: #000000; stroke-width: 0.5; stroke-linejoin: miter"/>
   </g>
   <g id="patch_76">
    <path d="M 133.292372 108.490669 
C 135.697106 107.709323 137.793685 106.186069 139.279892 104.14048 
C 140.766099 102.094891 141.566921 99.630215 141.56692 97.101728 
L 129.59188 97.101729 
z
" style="fill: #d8d800; stroke: #000000; stroke-width: 0.5; stroke-linejoin: miter"/>
   </g>
   <g id="patch_77">
    <path d="M 116.4096 174.528 
C 116.4096 171.999513 115.608778 169.534837 114.122571 167.489248 
C 112.636363 165.443659 110.539785 163.920406 108.135051 163.13906 
L 104.43456 174.528 
z
" style="stroke: #000000; stroke-width: 0.5; stroke-linejoin: miter"/>
   </g>
   <g id="patch_78">
    <path d="M 108.135051 163.13906 
C 105.730316 162.357715 103.138803 162.357715 100.734069 163.13906 
C 98.329335 163.920406 96.232756 165.443659 94.746549 167.489248 
L 104.43456 174.528 
z
" style="fill: #0000d8; stroke: #000000; stroke-width: 0.5; stroke-linejoin: miter"/>
   </g>
   <g id="patch_79">
    <path d="M 94.746549 167.489248 
C 93.260341 169.534838 92.45952 171.999513 92.45952 174.528001 
C 92.45952 177.056488 93.260342 179.521163 94.74655 181.566752 
L 104.43456 174.528 
z
" style="fill: #0000ff; stroke: #000000; stroke-width: 0.5; stroke-linejoin: miter"/>
   </g>
   <g id="patch_80">
    <path d="M 94.74655 181.566752 
C 96.232757 183.612342 98.329336 185.135595 100.73407 185.91694 
C 103.138804 186.698285 105.730318 186.698285 108.135052 185.91694 
L 104.43456 174.528 
z
" style="fill: #ff0000; stroke: #000000; stroke-width: 0.5; stroke-linejoin: miter"/>
   </g>
   <g id="patch_81">
    <path d="M 108.135052 185.91694 
C 110.539786 185.135594 112.636364 183.61234 114.122571 181.566751 
C 115.608779 179.521162 116.4096 177.056486 116.4096 174.527999 
L 104.43456 174.528 
z
" style="fill: #ffff00; stroke: #000000; stroke-width: 0.5; stroke-linejoin: miter"/>
   </g>
   <g id="patch_82">
    <path d="M 168.30144 174.528 
C 168.30144 171.999513 167.500618 169.534837 166.014411 167.489248 
C 164.528203 165.443659 162.431625 163.920406 160.026891 163.13906 
L 156.3264 174.528 
z
" style="fill: #d80000; stroke: #000000; stroke-width: 0.5; stroke-linejoin: miter"/>
   </g>
   <g id="patch_83">
    <path d="M 160.026891 163.13906 
C 157.622156 162.357715 155.030643 162.357715 152.625909 163.13906 
C 150.221175 163.920406 148.124596 165.443659 146.638389 167.489248 
L 156.3264 174.528 
z
" style="fill: #d800d8; stroke: #000000; stroke-width: 0.5; stroke-linejoin: miter"/>
   </g>
   <g id="patch_84">
    <path d="M 146.638389 167.489248 
C 145.152181 169.534838 144.35136 171.999513 144.35136 174.528001 
C 144.35136 177.056488 145.152182 179.521163 146.63839 181.566752 
L 156.3264 174.528 
z
" style="fill: #ff00ff; stroke: #000000; stroke-width: 0.5; stroke-linejoin: miter"/>
   </g>
   <g id="patch_85">
    <path d="M 146.63839 181.566752 
C 148.124597 183.612342 150.221176 185.135595 152.62591 185.91694 
C 155.030644 186.698285 157.622158 186.698285 160.026892 185.91694 
L 156.3264 174.528 
z
" style="fill: #00ff00; stroke: #000000; stroke-width: 0.5; stroke-linejoin: miter"/>
   </g>
   <g id="patch_86">
    <path d="M 160.026892 185.91694 
C 162.431626 185.135594 164.528204 183.61234 166.014411 181.566751 
C 167.500619 179.521162 168.30144 177.056486 168.30144 174.527999 
L 156.3264 174.528 
z
" style="fill: #00d8d8; stroke: #000000; stroke-width: 0.5; stroke-linejoin: miter"/>
   </g>
   <g id="patch_87">
    <path d="M 223.465101 250.454265 
C 223.465101 247.925778 222.664279 245.461103 221.178072 243.415514 
C 219.691864 241.369924 217.595286 239.846671 215.190552 239.065326 
L 211.490061 250.454265 
z
" style="fill: #ff0000; stroke: #000000; stroke-width: 0.5; stroke-linejoin: miter"/>
   </g>
   <g id="patch_88">
    <path d="M 215.190552 239.065326 
C 212.785817 238.28398 210.194304 238.28398 207.78957 239.065326 
C 205.384835 239.846671 203.288257 241.369925 201.80205 243.415514 
L 211.490061 250.454265 
z
" style="fill: #00d800; stroke: #000000; stroke-width: 0.5; stroke-linejoin: miter"/>
   </g>
   <g id="patch_89">
    <path d="M 201.80205 243.415514 
C 200.315842 245.461103 199.515021 247.925779 199.515021 250.454266 
C 199.515021 252.982753 200.315843 255.447429 201.80205 257.493018 
L 211.490061 250.454265 
z
" style="fill: #00ffff; stroke: #000000; stroke-width: 0.5; stroke-linejoin: miter"/>
   </g>
   <g id="patch_90">
    <path d="M 201.80205 257.493018 
C 203.288258 259.538607 205.384836 261.06186 207.789571 261.843206 
C 210.194305 262.624551 212.785818 262.624551 215.190553 261.843205 
L 211.490061 250.454265 
z
" style="fill: #d8d800; stroke: #000000; stroke-width: 0.5; stroke-linejoin: miter"/>
   </g>
   <g id="patch_91">
    <path d="M 215.190553 261.843205 
C 217.595287 261.061859 219.691865 259.538606 221.178072 257.493017 
C 222.66428 255.447427 223.465101 252.982752 223.465101 250.454264 
L 211.490061 250.454265 
z
" style="fill: #ffff00; stroke: #000000; stroke-width: 0.5; stroke-linejoin: miter"/>
   </g>
   <g id="patch_92">
    <path d="M 312.721779 221.453013 
C 312.721779 218.924525 311.920957 216.45985 310.43475 214.414261 
C 308.948542 212.368672 306.851964 210.845418 304.44723 210.064073 
L 300.746739 221.453013 
z
" style="stroke: #000000; stroke-width: 0.5; stroke-linejoin: miter"/>
   </g>
   <g id="patch_93">
    <path d="M 304.44723 210.064073 
C 302.042496 209.282727 299.450982 209.282727 297.046248 210.064073 
C 294.641514 210.845419 292.544935 212.368672 291.058728 214.414261 
L 300.746739 221.453013 
z
" style="fill: #0000d8; stroke: #000000; stroke-width: 0.5; stroke-linejoin: miter"/>
   </g>
   <g id="patch_94">
    <path d="M 291.058728 214.414261 
C 289.572521 216.45985 288.771699 218.924526 288.771699 221.453013 
C 288.771699 223.981501 289.572521 226.446176 291.058729 228.491765 
L 300.746739 221.453013 
z
" style="fill: #0000ff; stroke: #000000; stroke-width: 0.5; stroke-linejoin: miter"/>
   </g>
   <g id="patch_95">
    <path d="M 291.058729 228.491765 
C 292.544936 230.537354 294.641515 232.060607 297.046249 232.841953 
C 299.450983 233.623298 302.042497 233.623298 304.447231 232.841952 
L 300.746739 221.453013 
z
" style="fill: #d800d8; stroke: #000000; stroke-width: 0.5; stroke-linejoin: miter"/>
   </g>
   <g id="patch_96">
    <path d="M 304.447231 232.841952 
C 306.851965 232.060607 308.948543 230.537353 310.434751 228.491764 
C 311.920958 226.446175 312.721779 223.981499 312.721779 221.453012 
L 300.746739 221.453013 
z
" style="fill: #ff00ff; stroke: #000000; stroke-width: 0.5; stroke-linejoin: miter"/>
   </g>
   <g id="patch_97">
    <path d="M 354.70316 251.954271 
C 354.70316 249.425784 353.902338 246.961108 352.41613 244.915519 
C 350.929923 242.86993 348.833344 241.346677 346.42861 240.565331 
L 342.72812 251.954271 
z
" style="fill: #00ff00; stroke: #000000; stroke-width: 0.5; stroke-linejoin: miter"/>
   </g>
   <g id="patch_98">
    <path d="M 346.42861 240.565331 
C 344.023876 239.783986 341.432363 239.783986 339.027628 240.565331 
C 336.622894 241.346677 334.526316 242.86993 333.040108 244.915519 
L 342.72812 251.954271 
z
" style="fill: #00d8d8; stroke: #000000; stroke-width: 0.5; stroke-linejoin: miter"/>
   </g>
   <g id="patch_99">
    <path d="M 333.040108 244.915519 
C 331.553901 246.961109 330.753079 249.425784 330.75308 251.954272 
C 330.75308 254.482759 331.553901 256.947434 333.040109 258.993023 
L 342.72812 251.954271 
z
" style="fill: #00ffff; stroke: #000000; stroke-width: 0.5; stroke-linejoin: miter"/>
   </g>
   <g id="patch_100">
    <path d="M 333.040109 258.993023 
C 334.526317 261.038612 336.622895 262.561866 339.027629 263.343211 
C 341.432364 264.124556 344.023877 264.124556 346.428611 263.343211 
L 342.72812 251.954271 
z
" style="fill: #d8d800; stroke: #000000; stroke-width: 0.5; stroke-linejoin: miter"/>
   </g>
   <g id="patch_101">
    <path d="M 346.428611 263.343211 
C 348.833345 262.561865 350.929924 261.038611 352.416131 258.993022 
C 353.902338 256.947433 354.70316 254.482757 354.70316 251.95427 
L 342.72812 251.954271 
z
" style="fill: #ffff00; stroke: #000000; stroke-width: 0.5; stroke-linejoin: miter"/>
   </g>
   <g id="matplotlib.axis_1"/>
   <g id="matplotlib.axis_2"/>
  </g>
 </g>
 <defs>
  <clipPath id="pc4fd6ae6a0">
   <rect x="103.104" y="41.472" width="266.112" height="266.112"/>
  </clipPath>
 </defs>
</svg>
